<svg class="main-svg" xmlns="http://www.w3.org/2000/svg" xmlns:xlink="http://www.w3.org/1999/xlink" width="700" height="500" style="" viewBox="0 0 700 500"><rect x="0" y="0" width="700" height="500" style="fill: rgb(255, 255, 255); fill-opacity: 1;"/><defs id="defs-b584bc"><g class="clips"><clipPath id="clipb584bcxyplot" class="plotclip"><rect width="652.2488334791484" height="398.2365485564304"/></clipPath><clipPath class="axesclip" id="clipb584bcx"><rect x="43.15799066783318" y="0" width="652.2488334791484" height="500"/></clipPath><clipPath class="axesclip" id="clipb584bcy"><rect x="0" y="46.88867016622919" width="700" height="398.2365485564304"/></clipPath><clipPath class="axesclip" id="clipb584bcxy"><rect x="43.15799066783318" y="46.88867016622919" width="652.2488334791484" height="398.2365485564304"/></clipPath></g><g class="gradients"/><g class="patterns"/></defs><g class="bglayer"/><g class="layer-below"><g class="imagelayer"/><g class="shapelayer"/></g><g class="cartesianlayer"><g class="subplot xy"><g class="layer-subplot"><g class="shapelayer"/><g class="imagelayer"/></g><g class="minor-gridlayer"><g class="x"/><g class="y"/></g><g class="gridlayer"><g class="x"><path class="xgrid crisp" transform="translate(61.61799066783318,0)" d="M0,46.88867016622919v398.2365485564304" style="stroke: rgb(0, 0, 0); stroke-opacity: 0.1; stroke-width: 0.5px;"/><path class="xgrid crisp" transform="translate(215.44799066783318,0)" d="M0,46.88867016622919v398.2365485564304" style="stroke: rgb(0, 0, 0); stroke-opacity: 0.1; stroke-width: 0.5px;"/><path class="xgrid crisp" transform="translate(369.2779906678332,0)" d="M0,46.88867016622919v398.2365485564304" style="stroke: rgb(0, 0, 0); stroke-opacity: 0.1; stroke-width: 0.5px;"/><path class="xgrid crisp" transform="translate(523.1179906678332,0)" d="M0,46.88867016622919v398.2365485564304" style="stroke: rgb(0, 0, 0); stroke-opacity: 0.1; stroke-width: 0.5px;"/><path class="xgrid crisp" transform="translate(676.9479906678331,0)" d="M0,46.88867016622919v398.2365485564304" style="stroke: rgb(0, 0, 0); stroke-opacity: 0.1; stroke-width: 0.5px;"/></g><g class="y"><path class="ygrid crisp" transform="translate(0,433.8586701662292)" d="M43.15799066783318,0h652.2488334791484" style="stroke: rgb(0, 0, 0); stroke-opacity: 0.1; stroke-width: 0.5px;"/><path class="ygrid crisp" transform="translate(0,363.09867016622917)" d="M43.15799066783318,0h652.2488334791484" style="stroke: rgb(0, 0, 0); stroke-opacity: 0.1; stroke-width: 0.5px;"/><path class="ygrid crisp" transform="translate(0,292.3486701662292)" d="M43.15799066783318,0h652.2488334791484" style="stroke: rgb(0, 0, 0); stroke-opacity: 0.1; stroke-width: 0.5px;"/><path class="ygrid crisp" transform="translate(0,221.58867016622918)" d="M43.15799066783318,0h652.2488334791484" style="stroke: rgb(0, 0, 0); stroke-opacity: 0.1; stroke-width: 0.5px;"/><path class="ygrid crisp" transform="translate(0,150.83867016622918)" d="M43.15799066783318,0h652.2488334791484" style="stroke: rgb(0, 0, 0); stroke-opacity: 0.1; stroke-width: 0.5px;"/><path class="ygrid crisp" transform="translate(0,80.07867016622919)" d="M43.15799066783318,0h652.2488334791484" style="stroke: rgb(0, 0, 0); stroke-opacity: 0.1; stroke-width: 0.5px;"/></g></g><g class="zerolinelayer"/><g class="layer-between"><g class="shapelayer"/><g class="imagelayer"/></g><path class="xlines-below"/><path class="ylines-below"/><g class="overlines-below"/><g class="xaxislayer-below"/><g class="yaxislayer-below"/><g class="overaxes-below"/><g class="overplot"><g class="xy" transform="translate(43.15799066783318,46.88867016622919)" clip-path="url(#clipb584bcxyplot)"><g class="scatterlayer mlayer"><g class="trace scatter tracee96f30" style="stroke-miterlimit: 2; opacity: 1;"><g class="fills"/><g class="errorbars"/><g class="lines"><path class="js-line" d="M18.46,386.97L30.77,330.36L43.07,287.91L55.38,245.46L67.69,245.46L79.99,231.3L92.3,188.85L104.61,203L116.91,174.7L141.53,174.7L153.83,146.4L166.14,146.4L178.45,118.1L190.75,89.8L203.06,103.95L227.67,103.95L239.98,118.1L252.28,132.25L264.59,132.25L276.9,118.1L289.2,132.25L301.51,103.95L313.82,103.95L338.43,103.95L350.74,118.1L399.96,61.49L412.27,61.49L436.88,89.8L449.19,75.64L510.72,75.64L523.03,61.49L535.34,61.49L547.64,47.34L559.95,47.34L572.26,75.64L584.56,103.95L596.87,118.1L609.18,160.55L621.48,118.1L633.79,103.95" style="vector-effect: none; fill: none; stroke: rgb(0, 0, 255); stroke-opacity: 0.3; stroke-width: 1px; opacity: 1;"/></g><g class="points"/><g class="text"/></g><g class="trace scatter traceecfe7d" style="stroke-miterlimit: 2; opacity: 1;"><g class="fills"/><g class="errorbars"/><g class="lines"><path class="js-line" d="M18.46,386.97L30.77,302.06L43.07,259.61L55.38,245.46L67.69,217.15L92.3,188.85L104.61,188.85L116.91,160.55L129.22,160.55L141.53,146.4L153.83,146.4L166.14,118.1L178.45,118.1L190.75,103.95L203.06,103.95L215.37,89.8L227.67,61.49L239.98,47.34L252.28,47.34L276.9,47.34L289.2,61.49L301.51,75.64L313.82,61.49L338.43,89.8L350.74,61.49L387.66,61.49L399.96,47.34L412.27,47.34L424.58,61.49L436.88,75.64L449.19,47.34L486.11,47.34L498.42,61.49L523.03,61.49L535.34,75.64L559.95,75.64L572.26,61.49L633.79,61.49" style="vector-effect: none; fill: none; stroke: rgb(0, 0, 255); stroke-opacity: 0.3; stroke-width: 1px; opacity: 1;"/></g><g class="points"/><g class="text"/></g><g class="trace scatter trace5a9e08" style="stroke-miterlimit: 2; opacity: 1;"><g class="fills"/><g class="errorbars"/><g class="lines"><path class="js-line" d="M18.46,386.97L30.77,259.61L43.07,231.3L55.38,217.15L67.69,188.85L79.99,174.7L92.3,188.85L116.91,160.55L129.22,160.55L141.53,174.7L153.83,160.55L166.14,160.55L178.45,146.4L190.75,174.7L203.06,174.7L227.67,174.7L239.98,188.85L252.28,174.7L264.59,188.85L276.9,188.85L289.2,174.7L301.51,174.7L313.82,146.4L326.12,146.4L338.43,160.55L387.66,160.55L399.96,132.25L424.58,132.25L436.88,103.95L449.19,89.8L461.5,89.8L486.11,89.8L498.42,118.1L510.72,118.1L523.03,103.95L535.34,89.8L547.64,103.95L572.26,103.95L584.56,118.1L596.87,103.95L609.18,132.25L621.48,103.95L633.79,118.1" style="vector-effect: none; fill: none; stroke: rgb(0, 0, 255); stroke-opacity: 0.3; stroke-width: 1px; opacity: 1;"/></g><g class="points"/><g class="text"/></g><g class="trace scatter trace107317" style="stroke-miterlimit: 2; opacity: 1;"><g class="fills"/><g class="errorbars"/><g class="lines"><path class="js-line" d="M18.46,386.97L30.77,358.66L43.07,287.91L55.38,217.15L67.69,231.3L79.99,203L92.3,188.85L104.61,174.7L116.91,174.7L129.22,160.55L141.53,160.55L153.83,160.55L166.14,174.7L178.45,160.55L190.75,188.85L203.06,174.7L215.37,174.7L227.67,160.55L239.98,160.55L252.28,160.55L264.59,132.25L276.9,132.25L289.2,146.4L301.51,146.4L313.82,188.85L338.43,132.25L350.74,146.4L375.35,146.4L387.66,118.1L399.96,132.25L412.27,132.25L424.58,132.25L436.88,118.1L461.5,118.1L473.8,132.25L498.42,132.25L510.72,118.1L535.34,118.1L547.64,103.95L559.95,132.25L572.26,132.25L584.56,103.95L596.87,103.95L609.18,89.8L621.48,89.8L633.79,89.8" style="vector-effect: none; fill: none; stroke: rgb(0, 0, 255); stroke-opacity: 0.3; stroke-width: 1px; opacity: 1;"/></g><g class="points"/><g class="text"/></g><g class="trace scatter trace5a43f9" style="stroke-miterlimit: 2; opacity: 1;"><g class="fills"/><g class="errorbars"/><g class="lines"><path class="js-line" d="M18.46,386.97L30.77,287.91L43.07,203L55.38,174.7L67.69,174.7L79.99,174.7L92.3,146.4L104.61,146.4L116.91,160.55L153.83,160.55L166.14,174.7L178.45,160.55L190.75,160.55L203.06,174.7L215.37,146.4L227.67,132.25L239.98,103.95L252.28,89.8L264.59,103.95L276.9,103.95L289.2,132.25L301.51,132.25L313.82,103.95L338.43,103.95L350.74,118.1L363.04,103.95L375.35,118.1L412.27,118.1L424.58,146.4L436.88,146.4L449.19,103.95L461.5,103.95L473.8,89.8L498.42,89.8L510.72,75.64L523.03,61.49L535.34,61.49L547.64,61.49L559.95,75.64L572.26,75.64L584.56,61.49L596.87,61.49L609.18,89.8L621.48,103.95L633.79,103.95" style="vector-effect: none; fill: none; stroke: rgb(0, 0, 255); stroke-opacity: 0.3; stroke-width: 1px; opacity: 1;"/></g><g class="points"/><g class="text"/></g><g class="trace scatter trace3f0a73" style="stroke-miterlimit: 2; opacity: 1;"><g class="fills"/><g class="errorbars"/><g class="lines"><path class="js-line" d="M18.46,386.97L30.77,344.51L43.07,287.91L55.38,273.76L67.69,245.46L79.99,217.15L92.3,217.15L104.61,174.7L116.91,160.55L129.22,160.55L141.53,132.25L153.83,146.4L166.14,132.25L178.45,146.4L190.75,146.4L215.37,146.4L227.67,160.55L239.98,146.4L252.28,146.4L264.59,118.1L276.9,118.1L338.43,118.1L350.74,89.8L363.04,89.8L375.35,103.95L387.66,103.95L399.96,118.1L412.27,146.4L424.58,146.4L436.88,118.1L449.19,118.1L461.5,118.1L473.8,103.95L486.11,89.8L498.42,89.8L559.95,89.8L572.26,103.95L584.56,118.1L596.87,103.95L609.18,89.8L621.48,118.1L633.79,118.1" style="vector-effect: none; fill: none; stroke: rgb(0, 0, 255); stroke-opacity: 0.3; stroke-width: 1px; opacity: 1;"/></g><g class="points"/><g class="text"/></g><g class="trace scatter tracef0e5fd" style="stroke-miterlimit: 2; opacity: 1;"><g class="fills"/><g class="errorbars"/><g class="lines"><path class="js-line" d="M18.46,386.97L30.77,273.76L43.07,231.3L55.38,217.15L67.69,188.85L79.99,203L92.3,203L116.91,174.7L129.22,174.7L141.53,188.85L153.83,188.85L166.14,188.85L178.45,174.7L227.67,174.7L239.98,160.55L252.28,174.7L264.59,203L276.9,188.85L289.2,203L301.51,188.85L313.82,160.55L338.43,160.55L350.74,146.4L375.35,146.4L387.66,132.25L399.96,118.1L412.27,132.25L424.58,118.1L436.88,118.1L449.19,118.1L461.5,132.25L486.11,132.25L498.42,146.4L523.03,118.1L535.34,118.1L559.95,89.8L572.26,103.95L596.87,103.95L609.18,89.8L621.48,89.8L633.79,103.95" style="vector-effect: none; fill: none; stroke: rgb(0, 0, 255); stroke-opacity: 0.3; stroke-width: 1px; opacity: 1;"/></g><g class="points"/><g class="text"/></g><g class="trace scatter trace5bafda" style="stroke-miterlimit: 2; opacity: 1;"><g class="fills"/><g class="errorbars"/><g class="lines"><path class="js-line" d="M18.46,386.97L30.77,273.76L43.07,231.3L55.38,188.85L67.69,203L92.3,146.4L104.61,146.4L153.83,146.4L166.14,132.25L178.45,132.25L190.75,118.1L203.06,132.25L215.37,118.1L227.67,118.1L239.98,132.25L252.28,118.1L264.59,132.25L289.2,132.25L301.51,118.1L313.82,103.95L326.12,103.95L338.43,75.64L350.74,89.8L363.04,75.64L375.35,103.95L387.66,89.8L399.96,61.49L461.5,61.49L473.8,75.64L486.11,75.64L498.42,89.8L523.03,61.49L535.34,61.49L547.64,75.64L559.95,118.1L572.26,103.95L584.56,118.1L596.87,132.25L609.18,132.25L633.79,103.95" style="vector-effect: none; fill: none; stroke: rgb(0, 0, 255); stroke-opacity: 0.3; stroke-width: 1px; opacity: 1;"/></g><g class="points"/><g class="text"/></g><g class="trace scatter trace427612" style="stroke-miterlimit: 2; opacity: 1;"><g class="fills"/><g class="errorbars"/><g class="lines"><path class="js-line" d="M18.46,386.97L30.77,302.06L43.07,259.61L55.38,259.61L67.69,217.15L79.99,188.85L92.3,188.85L104.61,146.4L116.91,160.55L129.22,146.4L141.53,103.95L153.83,89.8L166.14,89.8L190.75,89.8L203.06,103.95L227.67,103.95L239.98,118.1L252.28,132.25L264.59,132.25L289.2,103.95L301.51,103.95L326.12,103.95L338.43,89.8L350.74,89.8L363.04,61.49L375.35,61.49L387.66,47.34L412.27,47.34L424.58,61.49L473.8,61.49L486.11,75.64L498.42,89.8L510.72,89.8L523.03,103.95L535.34,89.8L547.64,103.95L559.95,75.64L596.87,75.64L609.18,61.49L621.48,75.64L633.79,61.49" style="vector-effect: none; fill: none; stroke: rgb(0, 0, 255); stroke-opacity: 0.3; stroke-width: 1px; opacity: 1;"/></g><g class="points"/><g class="text"/></g><g class="trace scatter trace339132" style="stroke-miterlimit: 2; opacity: 1;"><g class="fills"/><g class="errorbars"/><g class="lines"><path class="js-line" d="M18.46,386.97L43.07,273.76L55.38,231.3L67.69,203L79.99,203L104.61,231.3L116.91,231.3L153.83,188.85L166.14,160.55L178.45,132.25L190.75,118.1L203.06,118.1L215.37,132.25L227.67,146.4L239.98,132.25L252.28,146.4L264.59,146.4L301.51,146.4L313.82,132.25L326.12,132.25L338.43,146.4L350.74,146.4L363.04,132.25L375.35,132.25L387.66,118.1L399.96,146.4L412.27,132.25L424.58,132.25L436.88,103.95L461.5,103.95L473.8,89.8L486.11,89.8L498.42,103.95L510.72,103.95L523.03,89.8L535.34,61.49L547.64,61.49L559.95,61.49L572.26,75.64L621.48,75.64L633.79,47.34" style="vector-effect: none; fill: none; stroke: rgb(0, 0, 255); stroke-opacity: 0.3; stroke-width: 1px; opacity: 1;"/></g><g class="points"/><g class="text"/></g><g class="trace scatter trace17fcd5" style="stroke-miterlimit: 2;"><g class="fills"><g><path class="js-fill" d="M18.46,21.4L43.07,17.59L55.38,20.93L67.69,17.33L79.99,16.25L92.3,13.36L104.61,14.81L116.91,14.8L129.22,19.9L141.53,19.57L153.83,15.13L166.14,15.35L178.45,11.27L190.75,11.42L203.06,16.04L227.67,14.54L239.98,11.33L252.28,15.81L264.59,14.76L276.9,17.9L289.2,18.13L313.82,23.34L326.12,19.71L338.43,21.4L350.74,15.17L363.04,20.03L375.35,18.24L387.66,22.56L399.96,24.53L412.27,27.74L424.58,21.98L436.88,22.21L449.19,17.92L461.5,18.63L473.8,15.53L510.72,18.47L523.03,18.74L535.34,21.39L547.64,22.4L559.95,20.76L572.26,21.79L584.56,24.56L596.87,24.19L621.48,22.2L633.79,21.23L633.79,75.34L621.48,78.77L609.18,73.63L584.56,68.24L572.26,70.37L559.95,74.56L547.64,75.43L535.34,73.3L523.03,74.68L510.72,71.18L498.42,66.74L486.11,66.82L473.8,66.57L461.5,67.88L449.19,73.62L436.88,71.22L424.58,68.31L412.27,68.2L399.96,63.24L387.66,68.35L375.35,63.23L363.04,62.08L350.74,64.42L338.43,68.25L326.12,69.32L313.82,68.83L301.51,70.08L289.2,62.72L276.9,68.61L239.98,60.08L227.67,66.31L215.37,63.53L203.06,64.17L190.75,73.83L178.45,67.06L166.14,66.75L153.83,68.86L141.53,66.94L129.22,64.72L116.91,68.57L104.61,73.59L92.3,76.92L79.99,77.18L67.69,72.95L55.38,78.16L43.07,71.43L30.77,68.87L18.46,68.25Z" style="fill: rgb(255, 0, 0); fill-opacity: 0.2; stroke-width: 0;"/></g></g><g class="errorbars"/><g class="lines"><path class="js-line" d="M18.46,68.25L30.77,68.87L43.07,71.43L55.38,78.16L67.69,72.95L79.99,77.18L92.3,76.92L104.61,73.59L116.91,68.57L129.22,64.72L141.53,66.94L153.83,68.86L166.14,66.75L178.45,67.06L190.75,73.83L203.06,64.17L215.37,63.53L227.67,66.31L239.98,60.08L276.9,68.61L289.2,62.72L301.51,70.08L313.82,68.83L326.12,69.32L338.43,68.25L350.74,64.42L363.04,62.08L375.35,63.23L387.66,68.35L399.96,63.24L412.27,68.2L424.58,68.31L436.88,71.22L449.19,73.62L461.5,67.88L473.8,66.57L486.11,66.82L498.42,66.74L510.72,71.18L523.03,74.68L535.34,73.3L547.64,75.43L559.95,74.56L572.26,70.37L584.56,68.24L609.18,73.63L621.48,78.77L633.79,75.34" style="vector-effect: none; fill: none; stroke: rgb(255, 0, 0); stroke-opacity: 1; stroke-width: 1px; opacity: 1;"/></g><g class="points"/><g class="text"/></g><g class="trace scatter trace625877" style="stroke-miterlimit: 2;"><g class="fills"/><g class="errorbars"/><g class="lines"><path class="js-line" d="M18.46,21.4L43.07,17.59L55.38,20.93L67.69,17.33L79.99,16.25L92.3,13.36L104.61,14.81L116.91,14.8L129.22,19.9L141.53,19.57L153.83,15.13L166.14,15.35L178.45,11.27L190.75,11.42L203.06,16.04L227.67,14.54L239.98,11.33L252.28,15.81L264.59,14.76L276.9,17.9L289.2,18.13L313.82,23.34L326.12,19.71L338.43,21.4L350.74,15.17L363.04,20.03L375.35,18.24L387.66,22.56L399.96,24.53L412.27,27.74L424.58,21.98L436.88,22.21L449.19,17.92L461.5,18.63L473.8,15.53L510.72,18.47L523.03,18.74L535.34,21.39L547.64,22.4L559.95,20.76L572.26,21.79L584.56,24.56L596.87,24.19L621.48,22.2L633.79,21.23" style="vector-effect: none; fill: none; stroke: rgb(255, 0, 0); stroke-opacity: 1; stroke-width: 1px; opacity: 1;"/></g><g class="points"/><g class="text"/></g><g class="trace scatter tracebe06d4" style="stroke-miterlimit: 2; opacity: 1;"><g class="fills"/><g class="errorbars"/><g class="lines"><path class="js-line" d="M18.46,386.97L30.77,306.31L43.07,255.36L55.38,227.06L67.69,211.49L79.99,197.34L92.3,187.44L104.61,177.53L116.91,170.46L129.22,166.21L141.53,159.13L166.14,147.81L178.45,137.91L190.75,136.49L203.06,140.74L215.37,136.49L227.67,133.66L239.98,130.83L252.28,132.25L264.59,133.66L276.9,129.42L289.2,135.08L301.51,130.83L313.82,122.34L326.12,120.93L338.43,118.1L350.74,116.68L363.04,108.19L375.35,112.44L387.66,102.53L399.96,98.29L412.27,101.12L424.58,106.78L436.88,99.7L449.19,89.8L461.5,91.21L473.8,89.8L486.11,89.8L498.42,99.7L510.72,94.04L523.03,86.96L535.34,82.72L547.64,82.72L572.26,91.21L584.56,94.04L596.87,94.04L609.18,98.29L621.48,95.46L633.79,91.21" style="vector-effect: none; fill: none; stroke: rgb(0, 0, 255); stroke-opacity: 1; stroke-width: 3px; opacity: 1;"/></g><g class="points"/><g class="text"/></g><g class="trace scatter trace0380ab" style="stroke-miterlimit: 2; opacity: 1;"><g class="fills"/><g class="errorbars"/><g class="lines"><path class="js-line" d="M18.46,44.83L30.77,44.2L43.07,44.51L55.38,49.54L67.69,45.14L79.99,46.71L92.3,45.14L104.61,44.2L116.91,41.68L141.53,43.25L153.83,42L166.14,41.05L178.45,39.17L190.75,42.63L203.06,40.11L215.37,39.48L227.67,40.42L239.98,35.71L252.28,39.48L264.59,40.11L276.9,43.25L289.2,40.42L301.51,45.46L313.82,46.08L326.12,44.51L338.43,44.83L350.74,39.8L363.04,41.05L375.35,40.74L387.66,45.46L399.96,43.88L412.27,47.97L424.58,45.14L436.88,46.71L449.19,45.77L473.8,41.05L486.11,41.68L498.42,42L510.72,44.83L523.03,46.71L535.34,47.34L547.64,48.91L559.95,47.66L572.26,46.08L584.56,46.4L621.48,50.49L633.79,48.29" style="vector-effect: none; fill: none; stroke: rgb(255, 0, 0); stroke-opacity: 1; stroke-width: 2px; opacity: 1;"/></g><g class="points"/><g class="text"/></g></g></g></g><path class="xlines-above crisp" d="M42.15799066783318,445.6252187226596H695.4068241469815" style="fill: none; stroke-width: 1px; stroke: rgb(0, 0, 0); stroke-opacity: 1;"/><path class="ylines-above crisp" d="M42.65799066783318,46.88867016622919V445.1252187226596" style="fill: none; stroke-width: 1px; stroke: rgb(0, 0, 0); stroke-opacity: 1;"/><g class="overlines-above"/><g class="xaxislayer-above"><path class="xtick ticks crisp" d="M0,445.1252187226596v-5" transform="translate(61.61799066783318,0)" style="stroke: rgb(0, 0, 0); stroke-opacity: 1; stroke-width: 1px;"/><path class="xtick ticks crisp" d="M0,445.1252187226596v-5" transform="translate(215.44799066783318,0)" style="stroke: rgb(0, 0, 0); stroke-opacity: 1; stroke-width: 1px;"/><path class="xtick ticks crisp" d="M0,445.1252187226596v-5" transform="translate(369.2779906678332,0)" style="stroke: rgb(0, 0, 0); stroke-opacity: 1; stroke-width: 1px;"/><path class="xtick ticks crisp" d="M0,445.1252187226596v-5" transform="translate(523.1179906678332,0)" style="stroke: rgb(0, 0, 0); stroke-opacity: 1; stroke-width: 1px;"/><path class="xtick ticks crisp" d="M0,445.1252187226596v-5" transform="translate(676.9479906678331,0)" style="stroke: rgb(0, 0, 0); stroke-opacity: 1; stroke-width: 1px;"/><g class="xtick"><text text-anchor="middle" x="0" y="459.3252187226596" transform="translate(61.61799066783318,0)" style="font-family: sans-serif; font-size: 11px; fill: rgb(0, 0, 0); fill-opacity: 1; white-space: pre; opacity: 1;">2000</text></g><g class="xtick"><text text-anchor="middle" x="0" y="459.3252187226596" style="font-family: sans-serif; font-size: 11px; fill: rgb(0, 0, 0); fill-opacity: 1; white-space: pre; opacity: 1;" transform="translate(215.44799066783318,0)">2250</text></g><g class="xtick"><text text-anchor="middle" x="0" y="459.3252187226596" style="font-family: sans-serif; font-size: 11px; fill: rgb(0, 0, 0); fill-opacity: 1; white-space: pre; opacity: 1;" transform="translate(369.2779906678332,0)">2500</text></g><g class="xtick"><text text-anchor="middle" x="0" y="459.3252187226596" style="font-family: sans-serif; font-size: 11px; fill: rgb(0, 0, 0); fill-opacity: 1; white-space: pre; opacity: 1;" transform="translate(523.1179906678332,0)">2750</text></g><g class="xtick"><text text-anchor="middle" x="0" y="459.3252187226596" style="font-family: sans-serif; font-size: 11px; fill: rgb(0, 0, 0); fill-opacity: 1; white-space: pre; opacity: 1;" transform="translate(676.9479906678331,0)">3000</text></g></g><g class="yaxislayer-above"><path class="ytick ticks crisp" d="M43.15799066783318,0h5" transform="translate(0,433.8586701662292)" style="stroke: rgb(0, 0, 0); stroke-opacity: 1; stroke-width: 1px;"/><path class="ytick ticks crisp" d="M43.15799066783318,0h5" transform="translate(0,363.09867016622917)" style="stroke: rgb(0, 0, 0); stroke-opacity: 1; stroke-width: 1px;"/><path class="ytick ticks crisp" d="M43.15799066783318,0h5" transform="translate(0,292.3486701662292)" style="stroke: rgb(0, 0, 0); stroke-opacity: 1; stroke-width: 1px;"/><path class="ytick ticks crisp" d="M43.15799066783318,0h5" transform="translate(0,221.58867016622918)" style="stroke: rgb(0, 0, 0); stroke-opacity: 1; stroke-width: 1px;"/><path class="ytick ticks crisp" d="M43.15799066783318,0h5" transform="translate(0,150.83867016622918)" style="stroke: rgb(0, 0, 0); stroke-opacity: 1; stroke-width: 1px;"/><path class="ytick ticks crisp" d="M43.15799066783318,0h5" transform="translate(0,80.07867016622919)" style="stroke: rgb(0, 0, 0); stroke-opacity: 1; stroke-width: 1px;"/><g class="ytick"><text text-anchor="end" x="39.95799066783318" y="3.8499999999999996" transform="translate(0,433.8586701662292)" style="font-family: sans-serif; font-size: 11px; fill: rgb(0, 0, 0); fill-opacity: 1; white-space: pre; opacity: 1;">0</text></g><g class="ytick"><text text-anchor="end" x="39.95799066783318" y="3.8499999999999996" style="font-family: sans-serif; font-size: 11px; fill: rgb(0, 0, 0); fill-opacity: 1; white-space: pre; opacity: 1;" transform="translate(0,363.09867016622917)">5</text></g><g class="ytick"><text text-anchor="end" x="39.95799066783318" y="3.8499999999999996" style="font-family: sans-serif; font-size: 11px; fill: rgb(0, 0, 0); fill-opacity: 1; white-space: pre; opacity: 1;" transform="translate(0,292.3486701662292)">10</text></g><g class="ytick"><text text-anchor="end" x="39.95799066783318" y="3.8499999999999996" style="font-family: sans-serif; font-size: 11px; fill: rgb(0, 0, 0); fill-opacity: 1; white-space: pre; opacity: 1;" transform="translate(0,221.58867016622918)">15</text></g><g class="ytick"><text text-anchor="end" x="39.95799066783318" y="3.8499999999999996" style="font-family: sans-serif; font-size: 11px; fill: rgb(0, 0, 0); fill-opacity: 1; white-space: pre; opacity: 1;" transform="translate(0,150.83867016622918)">20</text></g><g class="ytick"><text text-anchor="end" x="39.95799066783318" y="3.8499999999999996" style="font-family: sans-serif; font-size: 11px; fill: rgb(0, 0, 0); fill-opacity: 1; white-space: pre; opacity: 1;" transform="translate(0,80.07867016622919)">25</text></g></g><g class="overaxes-above"/></g></g><g class="polarlayer"/><g class="smithlayer"/><g class="ternarylayer"/><g class="geolayer"/><g class="funnelarealayer"/><g class="pielayer"/><g class="iciclelayer"/><g class="treemaplayer"/><g class="sunburstlayer"/><g class="glimages"/><defs id="topdefs-b584bc"><g class="clips"/><clipPath id="legendb584bc"><rect width="141" height="67" x="1" y="1"/></clipPath></defs><g class="layer-above"><g class="imagelayer"/><g class="shapelayer"/></g><g class="infolayer"><g class="legend" pointer-events="all" transform="translate(557,378.79999999999995)"><rect class="bg" shape-rendering="crispEdges" style="stroke: rgb(0, 0, 0); stroke-opacity: 1; fill: rgb(255, 255, 255); fill-opacity: 1; stroke-width: 1px;" width="142" height="68" x="0.5" y="0.5"/><g class="scrollbox" transform="" clip-path="url(#legendb584bc)"><g class="groups"><g class="traces" transform="translate(1,15.5)" style="opacity: 1;"><text class="legendtext" text-anchor="start" x="40" y="4.29" style="font-family: sans-serif; font-size: 11px; fill: rgb(0, 0, 0); fill-opacity: 1; white-space: pre;">± std inter</text><g class="layers"><g class="legendfill"><path class="js-fill" d="M5,-2h30v6h-30z" style="stroke-width: 0; fill: rgb(255, 0, 0); fill-opacity: 0.2;"/></g><g class="legendlines"><path class="js-line" d="M5,-2h30" style="fill: none; stroke: rgb(255, 0, 0); stroke-opacity: 1; stroke-width: 1px;"/></g><g class="legendsymbols"><g class="legendpoints"/></g></g><rect class="legendtoggle" x="0" y="-9.5" width="136" height="19" style="fill: rgb(0, 0, 0); fill-opacity: 0;"/></g><g class="traces" transform="translate(1,34.5)" style="opacity: 1;"><text class="legendtext" text-anchor="start" x="40" y="4.29" style="font-family: sans-serif; font-size: 11px; fill: rgb(0, 0, 0); fill-opacity: 1; white-space: pre;">intra distance mean</text><g class="layers" style="opacity: 1;"><g class="legendfill"/><g class="legendlines"><path class="js-line" d="M5,0h30" style="fill: none; stroke: rgb(0, 0, 255); stroke-opacity: 1; stroke-width: 3px;"/></g><g class="legendsymbols"><g class="legendpoints"/></g></g><rect class="legendtoggle" x="0" y="-9.5" width="136" height="19" style="fill: rgb(0, 0, 0); fill-opacity: 0;"/></g><g class="traces" transform="translate(1,53.5)" style="opacity: 1;"><text class="legendtext" text-anchor="start" x="40" y="4.29" style="font-family: sans-serif; font-size: 11px; fill: rgb(0, 0, 0); fill-opacity: 1; white-space: pre;">inter distance mean</text><g class="layers" style="opacity: 1;"><g class="legendfill"/><g class="legendlines"><path class="js-line" d="M5,0h30" style="fill: none; stroke: rgb(255, 0, 0); stroke-opacity: 1; stroke-width: 2px;"/></g><g class="legendsymbols"><g class="legendpoints"/></g></g><rect class="legendtoggle" x="0" y="-9.5" width="136" height="19" style="fill: rgb(0, 0, 0); fill-opacity: 0;"/></g></g></g><rect class="scrollbar" rx="20" ry="3" width="0" height="0" style="fill: rgb(128, 139, 164); fill-opacity: 1;" x="0" y="0"/></g><g class="g-gtitle"/><g class="g-xtitle"><text class="xtitle" x="369.2824074074074" y="486.828125" text-anchor="middle" style="opacity: 1; font-family: sans-serif; font-size: 15px; fill: rgb(0, 0, 0); fill-opacity: 1; white-space: pre;">Epoch</text></g><g class="g-ytitle" transform="translate(5.5380859375,0)"><text class="ytitle" transform="rotate(-90,7.96875,246.0069444444444)" x="7.96875" y="246.0069444444444" text-anchor="middle" style="opacity: 1; font-family: sans-serif; font-size: 15px; fill: rgb(0, 0, 0); fill-opacity: 1; white-space: pre;">Distance de Hamming</text></g><g class="annotation" data-index="0" style="opacity: 1;"><g class="annotation-text-g" transform="rotate(0,369.28240740740745,33.000000000000014)"><g class="cursor-pointer" transform="translate(197,20)"><rect class="bg" x="0.5" y="0.5" width="343" height="25" style="stroke-width: 1px; stroke: rgb(0, 0, 0); stroke-opacity: 0; fill: rgb(0, 0, 0); fill-opacity: 0;"/><text class="annotation-text" text-anchor="middle" x="172.125" y="20" style="font-family: sans-serif; font-size: 20px; fill: rgb(0, 0, 0); fill-opacity: 1; white-space: pre;">Évolution des distances de séquences</text></g></g></g></g></svg>