<svg class="main-svg" xmlns="http://www.w3.org/2000/svg" xmlns:xlink="http://www.w3.org/1999/xlink" width="700" height="500" style="" viewBox="0 0 700 500"><rect x="0" y="0" width="700" height="500" style="fill: rgb(255, 255, 255); fill-opacity: 1;"/><defs id="defs-e9fe22"><g class="clips"><clipPath id="clipe9fe22xyplot" class="plotclip"><rect width="652.2488334791484" height="398.2365485564304"/></clipPath><clipPath class="axesclip" id="clipe9fe22x"><rect x="43.15799066783318" y="0" width="652.2488334791484" height="500"/></clipPath><clipPath class="axesclip" id="clipe9fe22y"><rect x="0" y="46.88867016622919" width="700" height="398.2365485564304"/></clipPath><clipPath class="axesclip" id="clipe9fe22xy"><rect x="43.15799066783318" y="46.88867016622919" width="652.2488334791484" height="398.2365485564304"/></clipPath></g><g class="gradients"/><g class="patterns"/></defs><g class="bglayer"/><g class="layer-below"><g class="imagelayer"/><g class="shapelayer"/></g><g class="cartesianlayer"><g class="subplot xy"><g class="layer-subplot"><g class="shapelayer"/><g class="imagelayer"/></g><g class="minor-gridlayer"><g class="x"/><g class="y"/></g><g class="gridlayer"><g class="x"><path class="xgrid crisp" transform="translate(61.61799066783318,0)" d="M0,46.88867016622919v398.2365485564304" style="stroke: rgb(0, 0, 0); stroke-opacity: 0.1; stroke-width: 0.5px;"/><path class="xgrid crisp" transform="translate(215.44799066783318,0)" d="M0,46.88867016622919v398.2365485564304" style="stroke: rgb(0, 0, 0); stroke-opacity: 0.1; stroke-width: 0.5px;"/><path class="xgrid crisp" transform="translate(369.2779906678332,0)" d="M0,46.88867016622919v398.2365485564304" style="stroke: rgb(0, 0, 0); stroke-opacity: 0.1; stroke-width: 0.5px;"/><path class="xgrid crisp" transform="translate(523.1179906678332,0)" d="M0,46.88867016622919v398.2365485564304" style="stroke: rgb(0, 0, 0); stroke-opacity: 0.1; stroke-width: 0.5px;"/><path class="xgrid crisp" transform="translate(676.9479906678331,0)" d="M0,46.88867016622919v398.2365485564304" style="stroke: rgb(0, 0, 0); stroke-opacity: 0.1; stroke-width: 0.5px;"/></g><g class="y"><path class="ygrid crisp" transform="translate(0,433.8586701662292)" d="M43.15799066783318,0h652.2488334791484" style="stroke: rgb(0, 0, 0); stroke-opacity: 0.1; stroke-width: 0.5px;"/><path class="ygrid crisp" transform="translate(0,363.78867016622917)" d="M43.15799066783318,0h652.2488334791484" style="stroke: rgb(0, 0, 0); stroke-opacity: 0.1; stroke-width: 0.5px;"/><path class="ygrid crisp" transform="translate(0,293.7086701662292)" d="M43.15799066783318,0h652.2488334791484" style="stroke: rgb(0, 0, 0); stroke-opacity: 0.1; stroke-width: 0.5px;"/><path class="ygrid crisp" transform="translate(0,223.6386701662292)" d="M43.15799066783318,0h652.2488334791484" style="stroke: rgb(0, 0, 0); stroke-opacity: 0.1; stroke-width: 0.5px;"/><path class="ygrid crisp" transform="translate(0,153.5686701662292)" d="M43.15799066783318,0h652.2488334791484" style="stroke: rgb(0, 0, 0); stroke-opacity: 0.1; stroke-width: 0.5px;"/><path class="ygrid crisp" transform="translate(0,83.49867016622919)" d="M43.15799066783318,0h652.2488334791484" style="stroke: rgb(0, 0, 0); stroke-opacity: 0.1; stroke-width: 0.5px;"/></g></g><g class="zerolinelayer"/><g class="layer-between"><g class="shapelayer"/><g class="imagelayer"/></g><path class="xlines-below"/><path class="ylines-below"/><g class="overlines-below"/><g class="xaxislayer-below"/><g class="yaxislayer-below"/><g class="overaxes-below"/><g class="overplot"><g class="xy" transform="translate(43.15799066783318,46.88867016622919)" clip-path="url(#clipe9fe22xyplot)"><g class="scatterlayer mlayer"><g class="trace scatter tracedcb4b2" style="stroke-miterlimit: 2; opacity: 1;"><g class="fills"/><g class="errorbars"/><g class="lines"><path class="js-line" d="M18.46,386.97L30.77,316.9L43.07,288.87L55.38,288.87L67.69,232.81L79.99,218.8L92.3,190.77L104.61,162.74L116.91,148.73L166.14,148.73L178.45,162.74L215.37,120.7L227.67,120.7L252.28,120.7L264.59,106.68L276.9,92.67L289.2,92.67L301.51,92.67L313.82,106.68L338.43,78.66L350.74,92.67L363.04,106.68L375.35,106.68L461.5,106.68L473.8,92.67L486.11,92.67L498.42,78.66L510.72,64.64L523.03,64.64L535.34,50.63L547.64,50.63L584.56,50.63L596.87,78.66L609.18,92.67L621.48,64.64L633.79,64.64" style="vector-effect: none; fill: none; stroke: rgb(0, 0, 255); stroke-opacity: 0.3; stroke-width: 1px; opacity: 1;"/></g><g class="points"/><g class="text"/></g><g class="trace scatter tracea66c9b" style="stroke-miterlimit: 2; opacity: 1;"><g class="fills"/><g class="errorbars"/><g class="lines"><path class="js-line" d="M18.46,386.97L30.77,302.88L43.07,246.82L55.38,218.8L67.69,204.78L79.99,162.74L92.3,176.75L104.61,204.78L116.91,162.74L141.53,134.71L153.83,134.71L178.45,106.68L190.75,106.68L203.06,134.71L215.37,106.68L227.67,92.67L239.98,106.68L252.28,106.68L264.59,92.67L276.9,120.7L289.2,120.7L313.82,148.73L326.12,148.73L338.43,120.7L350.74,120.7L363.04,120.7L375.35,92.67L399.96,92.67L412.27,106.68L436.88,134.71L449.19,134.71L498.42,134.71L510.72,162.74L535.34,162.74L547.64,148.73L559.95,134.71L572.26,134.71L584.56,134.71L596.87,148.73L621.48,148.73L633.79,134.71" style="vector-effect: none; fill: none; stroke: rgb(0, 0, 255); stroke-opacity: 0.3; stroke-width: 1px; opacity: 1;"/></g><g class="points"/><g class="text"/></g><g class="trace scatter trace16950f" style="stroke-miterlimit: 2; opacity: 1;"><g class="fills"/><g class="errorbars"/><g class="lines"><path class="js-line" d="M18.46,386.97L43.07,274.85L55.38,246.82L79.99,162.74L92.3,190.77L104.61,204.78L116.91,190.77L129.22,134.71L141.53,120.7L153.83,106.68L166.14,106.68L178.45,92.67L190.75,92.67L203.06,78.66L215.37,78.66L227.67,92.67L239.98,78.66L252.28,78.66L264.59,92.67L276.9,92.67L289.2,106.68L313.82,106.68L326.12,92.67L338.43,120.7L350.74,92.67L399.96,92.67L412.27,78.66L424.58,64.64L436.88,64.64L461.5,64.64L473.8,78.66L486.11,64.64L498.42,78.66L510.72,78.66L523.03,50.63L559.95,50.63L572.26,78.66L584.56,106.68L596.87,106.68L609.18,106.68L621.48,92.67L633.79,64.64" style="vector-effect: none; fill: none; stroke: rgb(0, 0, 255); stroke-opacity: 0.3; stroke-width: 1px; opacity: 1;"/></g><g class="points"/><g class="text"/></g><g class="trace scatter trace996cda" style="stroke-miterlimit: 2; opacity: 1;"><g class="fills"/><g class="errorbars"/><g class="lines"><path class="js-line" d="M18.46,386.97L30.77,358.94L43.07,302.88L55.38,302.88L67.69,232.81L79.99,218.8L92.3,190.77L116.91,162.74L129.22,162.74L141.53,162.74L153.83,148.73L166.14,148.73L178.45,134.71L203.06,134.71L215.37,106.68L227.67,134.71L239.98,148.73L252.28,134.71L264.59,148.73L276.9,106.68L289.2,120.7L301.51,106.68L313.82,106.68L326.12,106.68L338.43,120.7L350.74,106.68L363.04,106.68L375.35,106.68L387.66,134.71L412.27,106.68L424.58,106.68L436.88,92.67L449.19,92.67L473.8,92.67L486.11,78.66L498.42,78.66L510.72,64.64L523.03,50.63L535.34,50.63L633.79,50.63" style="vector-effect: none; fill: none; stroke: rgb(0, 0, 255); stroke-opacity: 0.3; stroke-width: 1px; opacity: 1;"/></g><g class="points"/><g class="text"/></g><g class="trace scatter traceb3fd43" style="stroke-miterlimit: 2; opacity: 1;"><g class="fills"/><g class="errorbars"/><g class="lines"><path class="js-line" d="M18.46,386.97L43.07,246.82L55.38,204.78L79.99,204.78L92.3,190.77L104.61,176.75L116.91,176.75L141.53,176.75L153.83,148.73L166.14,148.73L178.45,120.7L190.75,134.71L203.06,106.68L239.98,106.68L252.28,120.7L264.59,148.73L276.9,162.74L289.2,162.74L301.51,148.73L313.82,162.74L326.12,134.71L412.27,134.71L424.58,148.73L436.88,162.74L449.19,162.74L461.5,162.74L473.8,176.75L486.11,176.75L498.42,190.77L510.72,190.77L523.03,176.75L572.26,176.75L584.56,162.74L596.87,134.71L609.18,134.71L621.48,134.71L633.79,148.73" style="vector-effect: none; fill: none; stroke: rgb(0, 0, 255); stroke-opacity: 0.3; stroke-width: 1px; opacity: 1;"/></g><g class="points"/><g class="text"/></g><g class="trace scatter trace683571" style="stroke-miterlimit: 2; opacity: 1;"><g class="fills"/><g class="errorbars"/><g class="lines"><path class="js-line" d="M18.46,386.97L30.77,344.92L43.07,316.9L79.99,274.85L92.3,218.8L104.61,204.78L116.91,204.78L141.53,120.7L153.83,120.7L166.14,106.68L178.45,106.68L190.75,134.71L203.06,120.7L215.37,106.68L227.67,120.7L252.28,120.7L264.59,148.73L276.9,120.7L289.2,120.7L301.51,120.7L313.82,134.71L326.12,134.71L338.43,120.7L350.74,120.7L363.04,106.68L375.35,106.68L387.66,92.67L399.96,92.67L412.27,106.68L424.58,106.68L436.88,92.67L473.8,92.67L486.11,78.66L498.42,64.64L510.72,64.64L535.34,64.64L547.64,78.66L584.56,78.66L596.87,64.64L621.48,64.64L633.79,78.66" style="vector-effect: none; fill: none; stroke: rgb(0, 0, 255); stroke-opacity: 0.3; stroke-width: 1px; opacity: 1;"/></g><g class="points"/><g class="text"/></g><g class="trace scatter trace64e475" style="stroke-miterlimit: 2; opacity: 1;"><g class="fills"/><g class="errorbars"/><g class="lines"><path class="js-line" d="M18.46,386.97L30.77,302.88L43.07,288.87L55.38,260.84L67.69,218.8L79.99,218.8L92.3,176.75L104.61,176.75L116.91,162.74L141.53,162.74L153.83,148.73L166.14,148.73L178.45,162.74L190.75,148.73L203.06,120.7L227.67,92.67L239.98,106.68L252.28,106.68L264.59,92.67L289.2,64.64L301.51,64.64L326.12,64.64L338.43,78.66L350.74,78.66L363.04,92.67L375.35,64.64L387.66,64.64L412.27,64.64L424.58,50.63L449.19,50.63L461.5,64.64L473.8,78.66L486.11,64.64L498.42,64.64L510.72,78.66L535.34,78.66L547.64,64.64L584.56,106.68L596.87,92.67L633.79,92.67" style="vector-effect: none; fill: none; stroke: rgb(0, 0, 255); stroke-opacity: 0.3; stroke-width: 1px; opacity: 1;"/></g><g class="points"/><g class="text"/></g><g class="trace scatter tracea47bd7" style="stroke-miterlimit: 2; opacity: 1;"><g class="fills"/><g class="errorbars"/><g class="lines"><path class="js-line" d="M18.46,386.97L30.77,358.94L43.07,344.92L55.38,302.88L67.69,302.88L92.3,246.82L104.61,232.81L116.91,218.8L129.22,218.8L141.53,204.78L153.83,246.82L166.14,176.75L178.45,204.78L190.75,190.77L203.06,162.74L227.67,162.74L239.98,134.71L252.28,134.71L264.59,148.73L276.9,162.74L289.2,134.71L313.82,162.74L326.12,148.73L338.43,162.74L350.74,148.73L363.04,134.71L375.35,134.71L387.66,134.71L399.96,148.73L424.58,148.73L436.88,162.74L449.19,148.73L461.5,162.74L473.8,148.73L486.11,148.73L498.42,148.73L510.72,106.68L523.03,92.67L535.34,106.68L547.64,92.67L559.95,92.67L633.79,92.67" style="vector-effect: none; fill: none; stroke: rgb(0, 0, 255); stroke-opacity: 0.3; stroke-width: 1px; opacity: 1;"/></g><g class="points"/><g class="text"/></g><g class="trace scatter tracedfdfdb" style="stroke-miterlimit: 2; opacity: 1;"><g class="fills"/><g class="errorbars"/><g class="lines"><path class="js-line" d="M18.46,386.97L30.77,344.92L43.07,288.87L55.38,274.85L67.69,246.82L79.99,218.8L92.3,204.78L129.22,204.78L141.53,190.77L153.83,190.77L166.14,162.74L178.45,162.74L190.75,176.75L215.37,176.75L227.67,162.74L239.98,162.74L252.28,148.73L264.59,148.73L276.9,134.71L326.12,134.71L338.43,148.73L350.74,120.7L363.04,78.66L375.35,78.66L387.66,92.67L412.27,64.64L424.58,78.66L436.88,106.68L449.19,92.67L473.8,64.64L486.11,64.64L498.42,50.63L510.72,50.63L535.34,50.63L547.64,64.64L584.56,64.64L596.87,78.66L609.18,78.66L621.48,64.64L633.79,78.66" style="vector-effect: none; fill: none; stroke: rgb(0, 0, 255); stroke-opacity: 0.3; stroke-width: 1px; opacity: 1;"/></g><g class="points"/><g class="text"/></g><g class="trace scatter traceeeb9b6" style="stroke-miterlimit: 2; opacity: 1;"><g class="fills"/><g class="errorbars"/><g class="lines"><path class="js-line" d="M18.46,386.97L30.77,316.9L43.07,316.9L55.38,316.9L67.69,302.88L79.99,274.85L92.3,204.78L104.61,204.78L116.91,176.75L129.22,162.74L141.53,162.74L153.83,134.71L166.14,134.71L190.75,106.68L203.06,120.7L215.37,120.7L227.67,106.68L239.98,120.7L252.28,120.7L264.59,134.71L276.9,134.71L289.2,134.71L301.51,106.68L338.43,106.68L350.74,92.67L363.04,92.67L375.35,106.68L387.66,92.67L399.96,92.67L449.19,92.67L461.5,106.68L473.8,92.67L486.11,106.68L523.03,106.68L535.34,92.67L596.87,92.67L609.18,120.7L633.79,120.7" style="vector-effect: none; fill: none; stroke: rgb(0, 0, 255); stroke-opacity: 0.3; stroke-width: 1px; opacity: 1;"/></g><g class="points"/><g class="text"/></g><g class="trace scatter trace8b4615" style="stroke-miterlimit: 2;"><g class="fills"><g><path class="js-fill" d="M18.46,17L30.77,15.91L43.07,13.91L67.69,19.88L79.99,20.98L92.3,20.72L104.61,15.91L116.91,13.64L129.22,16.55L141.53,14.89L153.83,20.53L178.45,18.06L190.75,18.62L215.37,11.27L227.67,13.34L239.98,14.71L252.28,12.76L276.9,12.43L289.2,16.65L301.51,19.48L313.82,17.27L326.12,21.16L338.43,19.75L350.74,22.33L363.04,21.3L387.66,19.59L399.96,19.33L436.88,16.22L449.19,18.65L473.8,16.27L486.11,18.99L498.42,21.51L510.72,19L535.34,15.77L547.64,16.55L559.95,19.52L572.26,21.38L584.56,16.75L596.87,18.59L609.18,19.4L621.48,16.29L633.79,15.61L633.79,61.35L621.48,63.78L609.18,61.92L596.87,60.24L584.56,63.95L572.26,65.55L559.95,60.56L547.64,58.55L535.34,60.57L523.03,60.5L510.72,59.21L498.42,63.55L486.11,62.34L473.8,65.05L461.5,66.93L449.19,63.3L436.88,63.23L424.58,68.81L412.27,66.01L399.96,63.24L363.04,71.23L350.74,66.47L338.43,70.91L326.12,70.13L313.82,67.79L301.51,69.32L289.2,74.64L276.9,72.01L264.59,77.69L252.28,74.17L239.98,71.59L227.67,67.98L203.06,72.69L190.75,64.58L178.45,63.89L166.14,61.71L153.83,61.42L141.53,56.46L116.91,58.34L104.61,57.31L92.3,63.09L79.99,64.71L67.69,62.06L55.38,64.68L43.07,60.56L30.77,57.31L18.46,56.85Z" style="fill: rgb(255, 0, 0); fill-opacity: 0.2; stroke-width: 0;"/></g></g><g class="errorbars"/><g class="lines"><path class="js-line" d="M18.46,56.85L30.77,57.31L43.07,60.56L55.38,64.68L67.69,62.06L79.99,64.71L92.3,63.09L104.61,57.31L116.91,58.34L141.53,56.46L153.83,61.42L166.14,61.71L178.45,63.89L190.75,64.58L203.06,72.69L227.67,67.98L239.98,71.59L252.28,74.17L264.59,77.69L276.9,72.01L289.2,74.64L301.51,69.32L313.82,67.79L326.12,70.13L338.43,70.91L350.74,66.47L363.04,71.23L399.96,63.24L412.27,66.01L424.58,68.81L436.88,63.23L449.19,63.3L461.5,66.93L473.8,65.05L486.11,62.34L498.42,63.55L510.72,59.21L523.03,60.5L535.34,60.57L547.64,58.55L559.95,60.56L572.26,65.55L584.56,63.95L596.87,60.24L609.18,61.92L621.48,63.78L633.79,61.35" style="vector-effect: none; fill: none; stroke: rgb(255, 0, 0); stroke-opacity: 1; stroke-width: 1px; opacity: 1;"/></g><g class="points"/><g class="text"/></g><g class="trace scatter trace3b678a" style="stroke-miterlimit: 2;"><g class="fills"/><g class="errorbars"/><g class="lines"><path class="js-line" d="M18.46,17L30.77,15.91L43.07,13.91L67.69,19.88L79.99,20.98L92.3,20.72L104.61,15.91L116.91,13.64L129.22,16.55L141.53,14.89L153.83,20.53L178.45,18.06L190.75,18.62L215.37,11.27L227.67,13.34L239.98,14.71L252.28,12.76L276.9,12.43L289.2,16.65L301.51,19.48L313.82,17.27L326.12,21.16L338.43,19.75L350.74,22.33L363.04,21.3L387.66,19.59L399.96,19.33L436.88,16.22L449.19,18.65L473.8,16.27L486.11,18.99L498.42,21.51L510.72,19L535.34,15.77L547.64,16.55L559.95,19.52L572.26,21.38L584.56,16.75L596.87,18.59L609.18,19.4L621.48,16.29L633.79,15.61" style="vector-effect: none; fill: none; stroke: rgb(255, 0, 0); stroke-opacity: 1; stroke-width: 1px; opacity: 1;"/></g><g class="points"/><g class="text"/></g><g class="trace scatter trace375fbf" style="stroke-miterlimit: 2; opacity: 1;"><g class="fills"/><g class="errorbars"/><g class="lines"><path class="js-line" d="M18.46,386.97L30.77,329.51L43.07,291.67L55.38,272.05L67.69,244.02L79.99,223L92.3,199.18L104.61,194.97L116.91,180.96L129.22,168.35L141.53,158.54L153.83,152.93L166.14,140.32L178.45,137.51L190.75,137.51L203.06,129.11L215.37,119.3L227.67,119.3L239.98,120.7L252.28,119.3L264.59,126.3L276.9,120.7L289.2,119.3L301.51,116.49L313.82,123.5L326.12,116.49L338.43,119.3L350.74,110.89L363.04,106.68L375.35,102.48L387.66,103.88L412.27,101.08L424.58,102.48L436.88,106.68L449.19,103.88L461.5,106.68L473.8,105.28L486.11,101.08L498.42,99.68L510.72,96.87L523.03,89.87L547.64,87.06L559.95,87.06L572.26,91.27L584.56,94.07L596.87,94.07L609.18,98.27L621.48,92.67L633.79,92.67" style="vector-effect: none; fill: none; stroke: rgb(0, 0, 255); stroke-opacity: 1; stroke-width: 3px; opacity: 1;"/></g><g class="points"/><g class="text"/></g><g class="trace scatter trace10a355" style="stroke-miterlimit: 2; opacity: 1;"><g class="fills"/><g class="errorbars"/><g class="lines"><path class="js-line" d="M18.46,36.92L30.77,36.61L43.07,37.24L55.38,40.66L67.69,40.97L79.99,42.84L92.3,41.91L104.61,36.61L116.91,35.99L129.22,36.92L141.53,35.68L153.83,40.97L166.14,40.66L190.75,41.6L203.06,43.78L215.37,40.97L227.67,40.66L239.98,43.15L252.28,43.46L264.59,45.33L276.9,42.22L289.2,45.64L301.51,44.4L313.82,42.53L326.12,45.64L350.74,44.4L363.04,46.27L399.96,41.28L412.27,42.22L424.58,42.84L436.88,39.73L461.5,42.22L473.8,40.66L486.11,40.66L498.42,42.53L510.72,39.1L523.03,39.1L547.64,37.55L559.95,40.04L572.26,43.46L584.56,40.35L596.87,39.42L609.18,40.66L621.48,40.04L633.79,38.48" style="vector-effect: none; fill: none; stroke: rgb(255, 0, 0); stroke-opacity: 1; stroke-width: 2px; opacity: 1;"/></g><g class="points"/><g class="text"/></g></g></g></g><path class="xlines-above crisp" d="M42.15799066783318,445.6252187226596H695.4068241469815" style="fill: none; stroke-width: 1px; stroke: rgb(0, 0, 0); stroke-opacity: 1;"/><path class="ylines-above crisp" d="M42.65799066783318,46.88867016622919V445.1252187226596" style="fill: none; stroke-width: 1px; stroke: rgb(0, 0, 0); stroke-opacity: 1;"/><g class="overlines-above"/><g class="xaxislayer-above"><path class="xtick ticks crisp" d="M0,445.1252187226596v-5" transform="translate(61.61799066783318,0)" style="stroke: rgb(0, 0, 0); stroke-opacity: 1; stroke-width: 1px;"/><path class="xtick ticks crisp" d="M0,445.1252187226596v-5" transform="translate(215.44799066783318,0)" style="stroke: rgb(0, 0, 0); stroke-opacity: 1; stroke-width: 1px;"/><path class="xtick ticks crisp" d="M0,445.1252187226596v-5" transform="translate(369.2779906678332,0)" style="stroke: rgb(0, 0, 0); stroke-opacity: 1; stroke-width: 1px;"/><path class="xtick ticks crisp" d="M0,445.1252187226596v-5" transform="translate(523.1179906678332,0)" style="stroke: rgb(0, 0, 0); stroke-opacity: 1; stroke-width: 1px;"/><path class="xtick ticks crisp" d="M0,445.1252187226596v-5" transform="translate(676.9479906678331,0)" style="stroke: rgb(0, 0, 0); stroke-opacity: 1; stroke-width: 1px;"/><g class="xtick"><text text-anchor="middle" x="0" y="459.3252187226596" transform="translate(61.61799066783318,0)" style="font-family: sans-serif; font-size: 11px; fill: rgb(0, 0, 0); fill-opacity: 1; white-space: pre; opacity: 1;">2000</text></g><g class="xtick"><text text-anchor="middle" x="0" y="459.3252187226596" style="font-family: sans-serif; font-size: 11px; fill: rgb(0, 0, 0); fill-opacity: 1; white-space: pre; opacity: 1;" transform="translate(215.44799066783318,0)">2250</text></g><g class="xtick"><text text-anchor="middle" x="0" y="459.3252187226596" style="font-family: sans-serif; font-size: 11px; fill: rgb(0, 0, 0); fill-opacity: 1; white-space: pre; opacity: 1;" transform="translate(369.2779906678332,0)">2500</text></g><g class="xtick"><text text-anchor="middle" x="0" y="459.3252187226596" style="font-family: sans-serif; font-size: 11px; fill: rgb(0, 0, 0); fill-opacity: 1; white-space: pre; opacity: 1;" transform="translate(523.1179906678332,0)">2750</text></g><g class="xtick"><text text-anchor="middle" x="0" y="459.3252187226596" style="font-family: sans-serif; font-size: 11px; fill: rgb(0, 0, 0); fill-opacity: 1; white-space: pre; opacity: 1;" transform="translate(676.9479906678331,0)">3000</text></g></g><g class="yaxislayer-above"><path class="ytick ticks crisp" d="M43.15799066783318,0h5" transform="translate(0,433.8586701662292)" style="stroke: rgb(0, 0, 0); stroke-opacity: 1; stroke-width: 1px;"/><path class="ytick ticks crisp" d="M43.15799066783318,0h5" transform="translate(0,363.78867016622917)" style="stroke: rgb(0, 0, 0); stroke-opacity: 1; stroke-width: 1px;"/><path class="ytick ticks crisp" d="M43.15799066783318,0h5" transform="translate(0,293.7086701662292)" style="stroke: rgb(0, 0, 0); stroke-opacity: 1; stroke-width: 1px;"/><path class="ytick ticks crisp" d="M43.15799066783318,0h5" transform="translate(0,223.6386701662292)" style="stroke: rgb(0, 0, 0); stroke-opacity: 1; stroke-width: 1px;"/><path class="ytick ticks crisp" d="M43.15799066783318,0h5" transform="translate(0,153.5686701662292)" style="stroke: rgb(0, 0, 0); stroke-opacity: 1; stroke-width: 1px;"/><path class="ytick ticks crisp" d="M43.15799066783318,0h5" transform="translate(0,83.49867016622919)" style="stroke: rgb(0, 0, 0); stroke-opacity: 1; stroke-width: 1px;"/><g class="ytick"><text text-anchor="end" x="39.95799066783318" y="3.8499999999999996" transform="translate(0,433.8586701662292)" style="font-family: sans-serif; font-size: 11px; fill: rgb(0, 0, 0); fill-opacity: 1; white-space: pre; opacity: 1;">0</text></g><g class="ytick"><text text-anchor="end" x="39.95799066783318" y="3.8499999999999996" style="font-family: sans-serif; font-size: 11px; fill: rgb(0, 0, 0); fill-opacity: 1; white-space: pre; opacity: 1;" transform="translate(0,363.78867016622917)">5</text></g><g class="ytick"><text text-anchor="end" x="39.95799066783318" y="3.8499999999999996" style="font-family: sans-serif; font-size: 11px; fill: rgb(0, 0, 0); fill-opacity: 1; white-space: pre; opacity: 1;" transform="translate(0,293.7086701662292)">10</text></g><g class="ytick"><text text-anchor="end" x="39.95799066783318" y="3.8499999999999996" style="font-family: sans-serif; font-size: 11px; fill: rgb(0, 0, 0); fill-opacity: 1; white-space: pre; opacity: 1;" transform="translate(0,223.6386701662292)">15</text></g><g class="ytick"><text text-anchor="end" x="39.95799066783318" y="3.8499999999999996" style="font-family: sans-serif; font-size: 11px; fill: rgb(0, 0, 0); fill-opacity: 1; white-space: pre; opacity: 1;" transform="translate(0,153.5686701662292)">20</text></g><g class="ytick"><text text-anchor="end" x="39.95799066783318" y="3.8499999999999996" style="font-family: sans-serif; font-size: 11px; fill: rgb(0, 0, 0); fill-opacity: 1; white-space: pre; opacity: 1;" transform="translate(0,83.49867016622919)">25</text></g></g><g class="overaxes-above"/></g></g><g class="polarlayer"/><g class="smithlayer"/><g class="ternarylayer"/><g class="geolayer"/><g class="funnelarealayer"/><g class="pielayer"/><g class="iciclelayer"/><g class="treemaplayer"/><g class="sunburstlayer"/><g class="glimages"/><defs id="topdefs-e9fe22"><g class="clips"/><clipPath id="legende9fe22"><rect width="141" height="67" x="1" y="1"/></clipPath></defs><g class="layer-above"><g class="imagelayer"/><g class="shapelayer"/></g><g class="infolayer"><g class="legend" pointer-events="all" transform="translate(557,378.79999999999995)"><rect class="bg" shape-rendering="crispEdges" style="stroke: rgb(0, 0, 0); stroke-opacity: 1; fill: rgb(255, 255, 255); fill-opacity: 1; stroke-width: 1px;" width="142" height="68" x="0.5" y="0.5"/><g class="scrollbox" transform="" clip-path="url(#legende9fe22)"><g class="groups"><g class="traces" transform="translate(1,15.5)" style="opacity: 1;"><text class="legendtext" text-anchor="start" x="40" y="4.29" style="font-family: sans-serif; font-size: 11px; fill: rgb(0, 0, 0); fill-opacity: 1; white-space: pre;">± std inter</text><g class="layers"><g class="legendfill"><path class="js-fill" d="M5,-2h30v6h-30z" style="stroke-width: 0; fill: rgb(255, 0, 0); fill-opacity: 0.2;"/></g><g class="legendlines"><path class="js-line" d="M5,-2h30" style="fill: none; stroke: rgb(255, 0, 0); stroke-opacity: 1; stroke-width: 1px;"/></g><g class="legendsymbols"><g class="legendpoints"/></g></g><rect class="legendtoggle" x="0" y="-9.5" width="136" height="19" style="fill: rgb(0, 0, 0); fill-opacity: 0;"/></g><g class="traces" transform="translate(1,34.5)" style="opacity: 1;"><text class="legendtext" text-anchor="start" x="40" y="4.29" style="font-family: sans-serif; font-size: 11px; fill: rgb(0, 0, 0); fill-opacity: 1; white-space: pre;">intra distance mean</text><g class="layers" style="opacity: 1;"><g class="legendfill"/><g class="legendlines"><path class="js-line" d="M5,0h30" style="fill: none; stroke: rgb(0, 0, 255); stroke-opacity: 1; stroke-width: 3px;"/></g><g class="legendsymbols"><g class="legendpoints"/></g></g><rect class="legendtoggle" x="0" y="-9.5" width="136" height="19" style="fill: rgb(0, 0, 0); fill-opacity: 0;"/></g><g class="traces" transform="translate(1,53.5)" style="opacity: 1;"><text class="legendtext" text-anchor="start" x="40" y="4.29" style="font-family: sans-serif; font-size: 11px; fill: rgb(0, 0, 0); fill-opacity: 1; white-space: pre;">inter distance mean</text><g class="layers" style="opacity: 1;"><g class="legendfill"/><g class="legendlines"><path class="js-line" d="M5,0h30" style="fill: none; stroke: rgb(255, 0, 0); stroke-opacity: 1; stroke-width: 2px;"/></g><g class="legendsymbols"><g class="legendpoints"/></g></g><rect class="legendtoggle" x="0" y="-9.5" width="136" height="19" style="fill: rgb(0, 0, 0); fill-opacity: 0;"/></g></g></g><rect class="scrollbar" rx="20" ry="3" width="0" height="0" style="fill: rgb(128, 139, 164); fill-opacity: 1;" x="0" y="0"/></g><g class="g-gtitle"/><g class="g-xtitle"><text class="xtitle" x="369.2824074074074" y="486.828125" text-anchor="middle" style="opacity: 1; font-family: sans-serif; font-size: 15px; fill: rgb(0, 0, 0); fill-opacity: 1; white-space: pre;">Epoch</text></g><g class="g-ytitle" transform="translate(5.5380859375,0)"><text class="ytitle" transform="rotate(-90,7.96875,246.0069444444444)" x="7.96875" y="246.0069444444444" text-anchor="middle" style="opacity: 1; font-family: sans-serif; font-size: 15px; fill: rgb(0, 0, 0); fill-opacity: 1; white-space: pre;">Distance de Hamming</text></g><g class="annotation" data-index="0" style="opacity: 1;"><g class="annotation-text-g" transform="rotate(0,369.28240740740745,33.000000000000014)"><g class="cursor-pointer" transform="translate(197,20)"><rect class="bg" x="0.5" y="0.5" width="343" height="25" style="stroke-width: 1px; stroke: rgb(0, 0, 0); stroke-opacity: 0; fill: rgb(0, 0, 0); fill-opacity: 0;"/><text class="annotation-text" text-anchor="middle" x="172.125" y="20" style="font-family: sans-serif; font-size: 20px; fill: rgb(0, 0, 0); fill-opacity: 1; white-space: pre;">Évolution des distances de séquences</text></g></g></g></g></svg>