<svg class="main-svg" xmlns="http://www.w3.org/2000/svg" xmlns:xlink="http://www.w3.org/1999/xlink" width="700" height="500" style="" viewBox="0 0 700 500"><rect x="0" y="0" width="700" height="500" style="fill: rgb(255, 255, 255); fill-opacity: 1;"/><defs id="defs-9c6ec7"><g class="clips"><clipPath id="clip9c6ec7xyplot" class="plotclip"><rect width="641.8784631087781" height="398.2365485564304"/></clipPath><clipPath class="axesclip" id="clip9c6ec7x"><rect x="53.52836103820355" y="0" width="641.8784631087781" height="500"/></clipPath><clipPath class="axesclip" id="clip9c6ec7y"><rect x="0" y="46.88867016622919" width="700" height="398.2365485564304"/></clipPath><clipPath class="axesclip" id="clip9c6ec7xy"><rect x="53.52836103820355" y="46.88867016622919" width="641.8784631087781" height="398.2365485564304"/></clipPath></g><g class="gradients"/><g class="patterns"/></defs><g class="bglayer"/><g class="layer-below"><g class="imagelayer"/><g class="shapelayer"/></g><g class="cartesianlayer"><g class="subplot xy"><g class="layer-subplot"><g class="shapelayer"/><g class="imagelayer"/></g><g class="minor-gridlayer"><g class="x"/><g class="y"/></g><g class="gridlayer"><g class="x"><path class="xgrid crisp" transform="translate(71.63836103820356,0)" d="M0,46.88867016622919v398.2365485564304" style="stroke: rgb(0, 0, 0); stroke-opacity: 0.1; stroke-width: 0.5px;"/><path class="xgrid crisp" transform="translate(223.03836103820353,0)" d="M0,46.88867016622919v398.2365485564304" style="stroke: rgb(0, 0, 0); stroke-opacity: 0.1; stroke-width: 0.5px;"/><path class="xgrid crisp" transform="translate(374.4383610382036,0)" d="M0,46.88867016622919v398.2365485564304" style="stroke: rgb(0, 0, 0); stroke-opacity: 0.1; stroke-width: 0.5px;"/><path class="xgrid crisp" transform="translate(525.8383610382035,0)" d="M0,46.88867016622919v398.2365485564304" style="stroke: rgb(0, 0, 0); stroke-opacity: 0.1; stroke-width: 0.5px;"/><path class="xgrid crisp" transform="translate(677.2383610382036,0)" d="M0,46.88867016622919v398.2365485564304" style="stroke: rgb(0, 0, 0); stroke-opacity: 0.1; stroke-width: 0.5px;"/></g><g class="y"><path class="ygrid crisp" transform="translate(0,433.8586701662292)" d="M53.52836103820355,0h641.8784631087781" style="stroke: rgb(0, 0, 0); stroke-opacity: 0.1; stroke-width: 0.5px;"/><path class="ygrid crisp" transform="translate(0,330.9386701662292)" d="M53.52836103820355,0h641.8784631087781" style="stroke: rgb(0, 0, 0); stroke-opacity: 0.1; stroke-width: 0.5px;"/><path class="ygrid crisp" transform="translate(0,228.01867016622919)" d="M53.52836103820355,0h641.8784631087781" style="stroke: rgb(0, 0, 0); stroke-opacity: 0.1; stroke-width: 0.5px;"/><path class="ygrid crisp" transform="translate(0,125.09867016622918)" d="M53.52836103820355,0h641.8784631087781" style="stroke: rgb(0, 0, 0); stroke-opacity: 0.1; stroke-width: 0.5px;"/></g></g><g class="zerolinelayer"/><g class="layer-between"><g class="shapelayer"/><g class="imagelayer"/></g><path class="xlines-below"/><path class="ylines-below"/><g class="overlines-below"/><g class="xaxislayer-below"/><g class="yaxislayer-below"/><g class="overaxes-below"/><g class="overplot"><g class="xy" transform="translate(53.52836103820355,46.88867016622919)" clip-path="url(#clip9c6ec7xyplot)"><g class="scatterlayer mlayer"><g class="trace scatter traceef1dcb" style="stroke-miterlimit: 2; opacity: 1;"><g class="fills"/><g class="errorbars"/><g class="lines"><path class="js-line" d="M18.17,386.97L22.28,386.31L22.35,385.81L23.25,384.73L23.31,384.73L24.59,382.23L24.65,382.23L25.86,382.23L25.92,381.27L26.1,381.27L26.16,378.83L26.95,376.74L27.01,376.74L28.58,332.84L28.64,332.84L28.83,332.84L28.89,329.71L30.1,329.71L30.16,326.22L30.58,326.22L30.64,324.71L30.88,324.71L30.94,323.9L31.79,323.9L31.85,321.28L32.7,288.3L32.76,286.06L33,286.06L33.06,284.93L34.28,284.96L34.34,276.07L35.24,273.4L35.31,273.4L36.52,273.56L36.58,252.2L37.97,252.2L38.03,244.08L38.33,244.08L38.39,229.1L38.82,228.4L38.88,225.26L42.69,225.06L42.75,227.94L44.45,227.94L44.51,202.42L45.42,202.97L45.48,202.97L47.24,202.69L47.3,207.08L47.36,201.19L48.08,201.37L48.14,201.37L48.39,201.37L48.45,202.74L48.63,202.74L48.69,201.46L49.11,201.46L49.17,190.76L49.48,190.76L49.54,182.89L50.38,182.28L50.45,178.97L50.69,182.31L50.87,182.1L50.93,157.1L51.23,157.1L51.29,155.12L52.26,155.12L52.32,132.99L52.93,130.95L52.99,133.53L53.05,133.24L53.72,133.53L53.78,133.53L54.08,133.53L54.14,119.57L55.77,119.57L55.84,121.14L56.74,121.14L56.8,123.66L57.77,124.39L57.83,125.36L58.02,125.36L58.08,127.31L58.32,127.31L58.38,128.67L59.04,128.86L59.11,130.69L59.35,130.69L59.41,136.23L60.38,135.35L60.44,135.35L60.74,136.07L60.8,130.21L60.98,130.21L61.04,124L61.29,124L61.35,125.49L62.38,125.49L62.44,106.59L63.28,106.59L63.34,105.59L64.92,104.86L64.98,104.8L65.77,104.02L65.83,104.02L66.37,104.02L66.43,109.03L70.61,108.54L70.67,96.7L71.4,97.25L71.46,94.35L74.06,94.38L74.12,99.95L74.67,99.95L74.73,104.25L75.52,104.25L75.58,99.95L76.43,104.25L76.49,94.44L78.3,95.16L78.36,98.23L79.21,91.1L79.27,91.1L80.18,93.39L80.24,93.39L80.97,93.67L81.03,89.4L83.51,89.4L83.57,90.35L83.87,90.35L83.94,95.32L87.51,94.58L87.57,98.51L87.87,98.51L87.93,94.58L88.17,94.58L88.24,96.61L88.72,96.61L88.78,94.57L90.54,94.57L90.6,93.31L91.08,93.31L91.14,89.82L91.32,91.56L91.87,89.82L91.93,89.82L92.78,89.76L92.84,92.62L93.2,92.62L93.26,90.54L93.62,91.02L93.69,91.95L94.47,92.95L94.53,92.95L95.14,92.95L95.2,83.74L96.17,83.2L96.23,83.2L96.47,83.2L96.53,79.81L97.99,79.68L98.05,78.16L99.2,78.16L99.26,87.3L101.92,87.3L101.98,90.71L102.35,90.71L102.41,87.3L103.07,87.3L103.13,92.13L104.59,92.13L104.65,90.35L105.19,90.35L105.25,92.13L106.4,74.1L106.46,74.1L106.65,74.1L106.71,82.25L107.55,74.27L107.61,74.27L110.16,74.27L110.22,77.1L111.01,74.27L111.07,74.27L111.67,74.7L111.73,80.12L113.13,80.12L113.19,78.41L114.34,79.98L114.4,79.98L115.85,79.98L115.91,78.67L118.39,78.67L118.45,80.74L118.7,80.74L118.76,82.73L122.82,82L122.88,83.3L123.18,89.09L123.66,85.41L123.72,85.41L124.87,87.81L124.93,87.81L125.96,87.81L126.02,90.97L126.21,90.97L126.27,99.9L127.05,93.5L127.11,93.5L127.42,94.26L127.48,88.27L128.63,88.27L128.69,89.28L129.42,89.28L129.48,82.9L130.32,81.55L130.39,81.55L130.63,81.55L130.69,84.94L132.5,84.94L132.57,81.55L133.35,81.55L133.41,93.9L133.66,95.9L133.72,79.99L133.78,79.99L134.08,84.32L134.14,55.55L134.2,55.55L134.56,55.55L134.62,56.67L135.35,56.67L135.41,54.57L135.65,54.57L135.71,50.37L136.44,50.37L136.5,48.44L137.35,50.23L137.41,50.23L139.83,50.46L139.89,43.82L140.68,43.6L140.74,44.74L142.74,44.38L142.8,40.88L143.41,39.71L143.47,41.27L144.31,34.95L144.37,34.95L145.95,35.06L146.01,36.68L146.37,36.68L146.43,42.39L147.22,42.39L147.28,39.66L148.13,39.66L148.19,34.48L148.61,34.48L148.67,28.64L149.52,31.62L149.58,31.62L149.83,31.5L149.89,32.65L150.55,32.65L150.61,34.4L150.85,34.58L151.46,29.93L151.52,29.93L153.76,29.58L153.82,30.88L154,30.88L154.06,34.69L155.34,34.69L155.4,32.36L155.76,32.36L155.82,34.56L155.94,35.22L156,34.26L156.49,34.26L156.55,34.26L157.09,34.26L157.15,35.43L157.4,35.43L157.46,34.26L158.85,34.26L158.91,31.7L161.7,31.7L161.76,34.24L162.12,34.24L162.18,35.98L166.18,35.67L166.24,28.15L166.78,28.15L166.84,29.81L168.78,30.02L168.84,32.15L169.2,32.15L169.27,30.16L170.11,39.93L170.17,39.93L171.02,39.13L171.08,39.13L171.69,39.13L171.75,37.5L172.11,37.5L172.17,42.11L172.66,49.18L172.96,45.58L173.02,45.58L173.26,45.58L173.32,38.92L175.14,39.5L175.2,29.62L176.17,29.62L176.23,25.39L177.32,25.39L177.38,29.78L177.56,29.78L177.62,30.81L177.99,30.81L178.05,26.81L178.53,26.81L178.59,27.62L179.2,27.62L179.26,33.53L180.17,33.53L180.23,32.38L180.89,32.38L180.95,34.89L182.04,34.57L182.1,36.35L184.53,36.35L184.59,39.83L186.52,39.83L186.59,35.62L187.37,34.39L187.43,34.39L188.71,34.54L188.77,31.12L189.73,31.12L189.8,32.4L193.79,32.4L193.85,43.86L194.7,43.7L194.76,43.7L195.25,43.7L195.31,47.89L196.09,47.78L196.15,49.54L196.94,49.27L197,36.9L197.73,36.9L197.79,43.35L200.27,43.74L200.33,44.55L201.06,44.15L201.12,44.64L202.03,41.05L202.09,41.05L203.06,41.05L203.12,39.72L203.66,39.72L203.72,41.98L207.05,41.98L207.12,35.79L211.96,36.17L212.02,36.99L212.81,36.48L212.87,39.06L215.78,39.06L215.84,33.38L216.74,33.38L216.81,40.49L217.9,40.95L217.96,41.51L220.62,41.59L220.68,51.73L221.35,51.73L221.41,46.45L221.95,46.45L222.01,48.68L222.38,48.68L222.44,47.32L222.74,47.32L222.8,48.61L223.1,48.61L223.16,53.75L223.35,58.93L223.89,54.05L223.95,54.05L224.07,46.58L224.68,51.49L224.74,51.49L225.4,50.35L225.47,45.29L225.59,49.76L226.19,46.78L226.25,46.78L226.62,46.78L226.68,48.03L228.07,48.03L228.13,56.93L228.49,56.93L228.55,55.63L228.86,57.13L229.28,55.59L229.34,55.59L230.01,55.59L230.07,56.45L230.98,58.33L231.04,58.33L231.28,58.33L231.34,54.9L233.46,54.9L233.52,59.08L237.27,59.17L237.34,54.86L238.06,54.86L238.12,60.03L239.76,59.39L239.82,66.17L241.15,66.17L241.21,78.7L241.27,78.37L241.33,79.33L241.82,79.33L241.88,79.33L245.33,79.92L245.39,72.73L246.24,46.21L246.3,46.21L246.96,46.21L247.02,51.03L248.9,50.92L248.96,53.23L249.39,52.83L249.45,52.47L250.36,48.73L250.42,48.73L251.2,51.64L251.26,51.64L252.54,51.64L252.6,49.5L253.32,49.5L253.38,44.18L253.75,44.18L253.81,46.28L253.99,46.28L254.05,44.83L254.84,36.18L254.9,38.35L255.69,41.67L255.75,39.93L256.47,43.71L256.53,41.73L256.59,41.73L256.78,41.73L256.84,38.63L257.8,38.63L257.87,43.53L258.17,43.77L258.23,42.14L259.08,42.14L259.14,48.1L260.29,48.1L260.35,51.33L260.65,51.32L260.71,46.2L260.95,46.2L261.01,44.12L261.68,48.8L261.8,46.17L261.86,46.17L262.53,42.36L262.77,42.8L262.83,42.8L263.68,42.65L263.74,43.44L264.04,43.44L264.1,45.06L265.56,45.56L265.62,44.34L267.13,44.46L267.19,43.23L270.28,43.53L270.34,44.16L271.55,44.89L271.61,42.69L273.61,42.69L273.67,41.06L274.7,47.2L274.76,47.2L275.06,47.2L275.13,45.8L275.97,42.56L276.03,42.56L276.46,42.52L276.52,41.04L277.61,41.64L277.67,54.69L278.09,55.04L278.15,69.32L279.06,69.05L279.12,75.05L279.36,75.05L279.42,73.47L279.79,73.47L279.85,59.45L280.33,59.45L280.39,55.75L280.88,55.75L280.94,49.26L282.03,49.26L282.09,51.45L282.57,51.45L282.63,47.04L283.48,50.12L283.54,50.12L284.94,49.68L285,49.03L285.18,49.03L285.24,44.75L286.99,44.75L287.06,43.06L288.57,43.21L288.63,44.58L290.2,44.58L290.27,41.24L290.99,46.65L291.05,42.06L291.72,42.06L291.78,39L292.57,38.86L292.63,41.08L293.17,41.08L293.23,32.78L293.72,32.78L293.78,34.42L294.63,33.85L294.69,32.2L295.47,34.61L295.53,34.61L295.78,34.61L295.84,40.19L296.26,40.09L296.32,44.33L297.05,44.33L297.11,38.32L298.08,38.7L298.14,36.34L298.56,36.34L298.62,38.46L299.17,38.2L299.23,40.69L300.92,40.77L300.98,41.85L302.01,41.85L302.07,43.26L302.38,44.13L302.44,42.49L302.74,42.49L302.8,42.49L304.13,42.81L304.19,41.09L304.86,41.09L304.92,36.27L305.47,36.27L305.53,27.24L307.16,27.24L307.22,31.65L307.83,31.85L307.89,29.4L310.49,30.07L310.55,33.15L311.76,33.15L311.82,39.71L313.46,39.71L313.52,41.6L313.7,41.6L313.76,35.2L314.13,35.2L314.19,29.2L315.22,41.91L315.28,41.91L315.64,44.3L315.7,40.69L315.94,40.69L316,40.69L317.4,40.69L317.46,41.92L318.55,41.92L318.61,40.69L320,40.69L320.06,42.86L322.97,42.63L323.03,43.48L324,43.18L324.06,50.01L324.85,46.48L324.91,46.48L325.57,57.08L325.81,50.42L325.87,50.42L327.27,50.51L327.33,50.51L328.48,50.51L328.54,38.19L331.57,37.67L331.63,42.24L331.87,42.24L331.93,39.22L332.9,38.91L332.96,34.91L333.2,34.91L333.26,33.91L333.63,33.91L333.69,32.2L334.23,30.01L334.29,41.23L334.78,41.23L334.84,30.01L335.5,30.01L335.56,35.09L336.41,36.24L336.47,36.24L337.99,36.24L338.05,38.17L338.96,41.32L339.02,41.32L339.14,40.52L339.2,44.77L339.26,44.77L339.32,44.77L339.56,44.77L339.62,43.35L340.29,43.77L340.35,46.41L341.14,43.29L341.2,43.29L343.44,43.64L343.5,44.43L344.1,44.43L344.16,51.61L344.47,51.61L344.53,48.7L345.5,44.44L345.56,41.55L345.86,41.55L345.92,43.8L346.53,43.8L346.59,45.36L347.43,45.36L347.5,58.56L348.59,57.99L348.65,59.2L348.83,59.2L348.89,58.15L349.8,53.95L349.86,53.84L350.7,58.11L350.77,58.11L351.13,58.11L351.19,60.02L351.92,60.02L351.98,46.57L352.34,46.57L352.4,45.05L353.85,45.6L353.91,46.83L354.7,34.55L354.76,34.55L356.09,34.55L356.16,33.63L356.4,33.63L356.46,29.83L357,27.78L357.06,33.59L358.46,33.59L358.52,34.49L360.52,33.74L360.58,36.08L362.94,36.08L363,28.15L363.3,28.15L363.36,31.8L363.54,31.8L363.6,22.02L364.51,21.5L364.57,18.87L377.53,19.56L377.59,19.66L377.9,19.66L377.96,18.23L378.93,18.63L378.99,18.63L379.35,20.29L379.47,17.26L379.59,17.26L379.65,17.26L381.23,17.26L381.29,19.91L384.74,19.91L384.8,23.14L385.04,23.14L385.1,28.49L386.44,28.49L386.5,29.26L386.68,29.26L386.74,20.8L386.98,20.8L387.04,22.42L388.68,22.42L388.74,20.8L389.28,20.8L389.34,18.27L391.46,18.27L391.52,14.45L392.49,14.04L392.55,14.04L392.73,14.04L392.79,13.07L393.4,13.07L393.46,22.9L394.37,22.9L394.43,25.46L394.85,25.46L394.91,28.24L395.4,28.24L395.46,27.44L396.61,27.44L396.67,30.09L397.94,30.09L398,27.42L400.12,27.42L400.18,32.74L401.39,32.74L401.45,35.82L401.58,35.04L401.64,30.05L402.85,30.05L402.91,31.98L403.94,31.98L404,24.17L407.21,24.17L407.27,27.55L410.96,27.55L411.02,29.59L411.45,29.59L411.51,26.55L412.6,33.48L412.66,33.48L412.96,33.48L413.02,32.68L414.66,32.68L414.72,34.68L415.63,34.68L415.69,26.45L416.59,23.03L416.66,23.03L417.26,23.03L417.32,21.63L421.32,22.18L421.38,22.42L421.74,22.42L421.8,24.28L422.23,32.48L422.65,28.98L422.71,28.98L423.56,33.81L423.62,33.81L425.5,34.5L425.56,30.21L427.31,30.21L427.37,19.48L428.83,19.48L428.89,15.05L429.68,15.05L429.74,19.49L430.52,23.5L430.58,23.5L432.58,23.5L432.64,23.08L434.28,23.08L434.34,18.69L435.73,17.95L435.79,17.3L437.91,17.3L437.97,15.16L439.37,15.16L439.43,22.16L440.27,29.91L440.33,29.91L441.18,29.91L441.24,33.82L442.82,33.78L442.88,32.76L444.33,33.18L444.39,39.45L445.06,39.45L445.12,34.42L445.3,34.42L445.36,39.62L446.21,37.46L446.27,37.46L446.63,37.46L446.69,29.78L449.48,30.47L449.54,29.31L450.51,29.31L450.57,26.5L450.93,26.5L450.99,32.59L453.42,32.84L453.48,37.16L453.96,37.16L454.02,35.4L454.69,35.4L454.75,38.39L454.99,38.39L455.05,34.94L455.72,34.94L455.78,36.91L457.84,36.91L457.9,35.39L459.41,35.39L459.47,29.81L460.08,29.1L460.14,25.55L460.56,25.55L460.62,27.59L462.2,27.59L462.26,28.99L463.04,28.99L463.11,32.33L463.83,26.7L463.89,29.58L463.95,29.58L464.5,29.15L464.56,33.59L465.35,33.59L465.41,35.65L465.77,35.65L465.83,45.36L466.32,45.36L466.38,52.18L466.8,59.55L467.16,58.84L467.22,51.52L467.95,51.52L468.01,47.21L469.83,46.59L469.89,40.75L472.73,40.32L472.8,27.03L473.04,27.03L473.1,35.88L473.58,35.88L473.64,38.67L474.85,38.67L474.91,34.61L475.76,36.82L475.82,36.82L476.07,36.82L476.13,31.06L476.43,31.06L476.49,32.89L481.88,32.89L481.94,29.35L482.73,31.64L482.79,31.64L484.3,31.64L484.36,25.07L486.18,25.07L486.24,31.33L487.03,34.87L487.09,34.87L487.45,34.87L487.51,32.44L488.9,32.44L488.96,36.01L489.15,36.01L489.21,42.58L489.93,39.79L489.99,43.92L490.78,52.59L490.9,51.54L490.96,51.54L491.93,51.54L491.99,49.69L493.14,49.69L493.2,45.84L494.42,45.84L494.48,47.09L495.63,47.09L495.69,44.62L499.08,44.62L499.14,40.72L500.05,39.07L500.11,39.07L501.08,39.07L501.14,37.38L501.32,37.38L501.38,39.78L503.14,39.78L503.2,45.42L504.23,45.42L504.29,39.16L505.19,39.75L505.26,39.75L506.04,34.72L506.1,34.72L507.62,35.06L507.68,41.33L510.1,41L510.16,39.74L512.22,39.74L512.28,42.27L512.46,42.27L512.52,39.83L512.77,39.83L512.83,36.34L513.31,36.34L513.37,31.91L514.64,31.91L514.7,29.61L515.91,30.11L515.97,32.14L516.16,32.14L516.22,42.99L516.52,42.99L516.58,40.75L516.7,41.82L517.31,40.73L517.37,40.73L519.55,40.04L519.61,34.13L521.85,34.8L521.91,33.12L529.54,33.42L529.6,22.02L535.35,22.45L535.41,16.43L537.41,16.43L537.47,14.76L537.78,14.76L537.84,12.83L541.77,12.83L541.83,11.65L542.44,11.65L542.5,14.86L547.04,14.86L547.1,13.02L547.95,13.02L548.01,17.47L548.68,21.23L548.86,20.36L548.92,17.24L550.98,17.41L551.04,24.5L551.46,24.5L551.52,26.63L552.07,31.36L552.37,30.98L552.43,30.98L552.74,30.98L552.8,28.06L554.61,28.06L554.67,18.64L556.25,18.64L556.31,25.96L556.73,25.96L556.79,19.96L556.97,19.96L557.03,21.93L557.88,21.93L557.94,20.24L558.12,20.24L558.19,21.18L558.55,21.18L558.61,22.28L561.09,22L561.15,19.62L562.55,19.64L562.61,20.51L565.45,20.51L565.51,22.28L565.7,19.35L566.24,21.01L566.3,21.01L568.54,20.28L568.6,22.14L570.66,22.11L570.72,19.83L571.45,19.81L571.51,20.88L572.48,18.76L572.54,18.76L573.27,21.02L573.45,20.44L573.51,20.44L573.69,20.44L573.75,24.96L574.11,24.96L574.17,30.16L574.54,30.16L574.6,22.14L576.6,22.84L576.66,24.06L576.96,24.06L577.02,45.04L577.87,47.08L577.93,47.08L578.78,47.08L578.84,47.99L579.68,47.99L579.75,49.74L580.35,49.74L580.41,52L583.02,52L583.08,48.79L584.41,48.79L584.47,45.73L584.89,45.73L584.95,39.86L586.35,39.86L586.41,38.02L587.25,34.44L587.32,34.44L589.31,34.44L589.37,27.02L589.98,27.21L590.04,23.85L593.01,23.41L593.07,19.51L593.92,28.57L593.98,28.57L594.89,33.44L594.95,29.2L595.73,27.21L595.79,27.21L596.76,27.21L596.82,25.05L597.85,25.05L597.91,15.25L598.58,25.39L598.64,20.47L599.55,19.68L599.61,19.68L603.3,19.68L603.36,13.78L603.85,13.78L603.91,12.5L606.51,12.5L606.57,11.66L607.36,12.69L607.42,26.94L608.03,26.41L608.09,29.65L608.94,26.33L609,26.33L609.54,11.27L609.84,16.37L609.9,16.37L613.17,16.45L613.24,23.7L613.42,23.7L613.48,21.39L614.39,12.34L614.45,12.34L619.84,12.34L619.9,19.25L620.93,19.25L620.99,15.37L623.05,15.75L623.11,20.1L623.71,19.52" style="vector-effect: none; fill: none; stroke: rgb(0, 154, 250); stroke-opacity: 1; stroke-width: 1px; opacity: 1;"/></g><g class="points"/><g class="text"/></g></g></g></g><path class="xlines-above crisp" d="M52.52836103820355,445.6252187226596H695.4068241469816" style="fill: none; stroke-width: 1px; stroke: rgb(0, 0, 0); stroke-opacity: 1;"/><path class="ylines-above crisp" d="M53.02836103820355,46.88867016622919V445.1252187226596" style="fill: none; stroke-width: 1px; stroke: rgb(0, 0, 0); stroke-opacity: 1;"/><g class="overlines-above"/><g class="xaxislayer-above"><path class="xtick ticks crisp" d="M0,445.1252187226596v-5" transform="translate(71.63836103820356,0)" style="stroke: rgb(0, 0, 0); stroke-opacity: 1; stroke-width: 1px;"/><path class="xtick ticks crisp" d="M0,445.1252187226596v-5" transform="translate(223.03836103820353,0)" style="stroke: rgb(0, 0, 0); stroke-opacity: 1; stroke-width: 1px;"/><path class="xtick ticks crisp" d="M0,445.1252187226596v-5" transform="translate(374.4383610382036,0)" style="stroke: rgb(0, 0, 0); stroke-opacity: 1; stroke-width: 1px;"/><path class="xtick ticks crisp" d="M0,445.1252187226596v-5" transform="translate(525.8383610382035,0)" style="stroke: rgb(0, 0, 0); stroke-opacity: 1; stroke-width: 1px;"/><path class="xtick ticks crisp" d="M0,445.1252187226596v-5" transform="translate(677.2383610382036,0)" style="stroke: rgb(0, 0, 0); stroke-opacity: 1; stroke-width: 1px;"/><g class="xtick"><text text-anchor="middle" x="0" y="459.3252187226596" transform="translate(71.63836103820356,0)" style="font-family: sans-serif; font-size: 11px; fill: rgb(0, 0, 0); fill-opacity: 1; white-space: pre; opacity: 1;">0</text></g><g class="xtick"><text text-anchor="middle" x="0" y="459.3252187226596" style="font-family: sans-serif; font-size: 11px; fill: rgb(0, 0, 0); fill-opacity: 1; white-space: pre; opacity: 1;" transform="translate(223.03836103820353,0)">2500</text></g><g class="xtick"><text text-anchor="middle" x="0" y="459.3252187226596" style="font-family: sans-serif; font-size: 11px; fill: rgb(0, 0, 0); fill-opacity: 1; white-space: pre; opacity: 1;" transform="translate(374.4383610382036,0)">5000</text></g><g class="xtick"><text text-anchor="middle" x="0" y="459.3252187226596" style="font-family: sans-serif; font-size: 11px; fill: rgb(0, 0, 0); fill-opacity: 1; white-space: pre; opacity: 1;" transform="translate(525.8383610382035,0)">7500</text></g><g class="xtick"><text text-anchor="middle" x="0" y="459.3252187226596" style="font-family: sans-serif; font-size: 11px; fill: rgb(0, 0, 0); fill-opacity: 1; white-space: pre; opacity: 1;" transform="translate(677.2383610382036,0)">10000</text></g></g><g class="yaxislayer-above"><path class="ytick ticks crisp" d="M53.52836103820355,0h5" transform="translate(0,433.8586701662292)" style="stroke: rgb(0, 0, 0); stroke-opacity: 1; stroke-width: 1px;"/><path class="ytick ticks crisp" d="M53.52836103820355,0h5" transform="translate(0,330.9386701662292)" style="stroke: rgb(0, 0, 0); stroke-opacity: 1; stroke-width: 1px;"/><path class="ytick ticks crisp" d="M53.52836103820355,0h5" transform="translate(0,228.01867016622919)" style="stroke: rgb(0, 0, 0); stroke-opacity: 1; stroke-width: 1px;"/><path class="ytick ticks crisp" d="M53.52836103820355,0h5" transform="translate(0,125.09867016622918)" style="stroke: rgb(0, 0, 0); stroke-opacity: 1; stroke-width: 1px;"/><g class="ytick"><text text-anchor="end" x="50.328361038203546" y="3.8499999999999996" transform="translate(0,433.8586701662292)" style="font-family: sans-serif; font-size: 11px; fill: rgb(0, 0, 0); fill-opacity: 1; white-space: pre; opacity: 1;">0.0</text></g><g class="ytick"><text text-anchor="end" x="50.328361038203546" y="3.8499999999999996" style="font-family: sans-serif; font-size: 11px; fill: rgb(0, 0, 0); fill-opacity: 1; white-space: pre; opacity: 1;" transform="translate(0,330.9386701662292)">0.2</text></g><g class="ytick"><text text-anchor="end" x="50.328361038203546" y="3.8499999999999996" style="font-family: sans-serif; font-size: 11px; fill: rgb(0, 0, 0); fill-opacity: 1; white-space: pre; opacity: 1;" transform="translate(0,228.01867016622919)">0.4</text></g><g class="ytick"><text text-anchor="end" x="50.328361038203546" y="3.8499999999999996" style="font-family: sans-serif; font-size: 11px; fill: rgb(0, 0, 0); fill-opacity: 1; white-space: pre; opacity: 1;" transform="translate(0,125.09867016622918)">0.6</text></g></g><g class="overaxes-above"/></g></g><g class="polarlayer"/><g class="smithlayer"/><g class="ternarylayer"/><g class="geolayer"/><g class="funnelarealayer"/><g class="pielayer"/><g class="iciclelayer"/><g class="treemaplayer"/><g class="sunburstlayer"/><g class="glimages"/><defs id="topdefs-9c6ec7"><g class="clips"/><clipPath id="legend9c6ec7"><rect width="57" height="29" x="1" y="1"/></clipPath></defs><g class="layer-above"><g class="imagelayer"/><g class="shapelayer"/></g><g class="infolayer"><g class="legend" pointer-events="all" transform="translate(641,20)"><rect class="bg" shape-rendering="crispEdges" style="stroke: rgb(0, 0, 0); stroke-opacity: 1; fill: rgb(255, 255, 255); fill-opacity: 1; stroke-width: 1px;" width="58" height="30" x="0.5" y="0.5"/><g class="scrollbox" transform="" clip-path="url(#legend9c6ec7)"><g class="groups"><g class="traces" transform="translate(1,15.5)" style="opacity: 1;"><text class="legendtext" text-anchor="start" x="40" y="4.29" style="font-family: sans-serif; font-size: 11px; fill: rgb(0, 0, 0); fill-opacity: 1; white-space: pre;">y1</text><g class="layers" style="opacity: 1;"><g class="legendfill"/><g class="legendlines"><path class="js-line" d="M5,0h30" style="fill: none; stroke: rgb(0, 154, 250); stroke-opacity: 1; stroke-width: 1px;"/></g><g class="legendsymbols"><g class="legendpoints"/></g></g><rect class="legendtoggle" x="0" y="-9.5" width="51.625" height="19" style="fill: rgb(0, 0, 0); fill-opacity: 0;"/></g></g></g><rect class="scrollbar" rx="20" ry="3" width="0" height="0" style="fill: rgb(128, 139, 164); fill-opacity: 1;" x="0" y="0"/></g><g class="g-gtitle"/><g class="g-xtitle"><text class="xtitle" x="374.4675925925926" y="486.328125" text-anchor="middle" style="opacity: 1; font-family: sans-serif; font-size: 15px; fill: rgb(0, 0, 0); fill-opacity: 1; white-space: pre;">Time</text></g><g class="g-ytitle"><text class="ytitle" transform="rotate(-90,15.28125,246.0069444444444)" x="15.28125" y="246.0069444444444" text-anchor="middle" style="opacity: 1; font-family: sans-serif; font-size: 15px; fill: rgb(0, 0, 0); fill-opacity: 1; white-space: pre;">Probability</text></g><g class="annotation" data-index="0" style="opacity: 1;"><g class="annotation-text-g" transform="rotate(0,374.4675925925926,33.000000000000014)"><g class="cursor-pointer" transform="translate(137,20)"><rect class="bg" x="0.5" y="0.5" width="473" height="25" style="stroke-width: 1px; stroke: rgb(0, 0, 0); stroke-opacity: 0; fill: rgb(0, 0, 0); fill-opacity: 0;"/><text class="annotation-text" text-anchor="middle" x="237.15625" y="20" style="font-family: sans-serif; font-size: 20px; fill: rgb(0, 0, 0); fill-opacity: 1; white-space: pre;">Evolution of the probability of the sequence over time</text></g></g></g></g></svg>