<svg class="main-svg" xmlns="http://www.w3.org/2000/svg" xmlns:xlink="http://www.w3.org/1999/xlink" width="700" height="500" style="" viewBox="0 0 700 500"><rect x="0" y="0" width="700" height="500" style="fill: rgb(255, 255, 255); fill-opacity: 1;"/><defs id="defs-7a8bdf"><g class="clips"><clipPath id="clip7a8bdfxyplot" class="plotclip"><rect width="641.8784631087781" height="398.2365485564304"/></clipPath><clipPath class="axesclip" id="clip7a8bdfx"><rect x="53.52836103820355" y="0" width="641.8784631087781" height="500"/></clipPath><clipPath class="axesclip" id="clip7a8bdfy"><rect x="0" y="46.88867016622919" width="700" height="398.2365485564304"/></clipPath><clipPath class="axesclip" id="clip7a8bdfxy"><rect x="53.52836103820355" y="46.88867016622919" width="641.8784631087781" height="398.2365485564304"/></clipPath></g><g class="gradients"/><g class="patterns"/></defs><g class="bglayer"/><g class="layer-below"><g class="imagelayer"/><g class="shapelayer"/></g><g class="cartesianlayer"><g class="subplot xy"><g class="layer-subplot"><g class="shapelayer"/><g class="imagelayer"/></g><g class="minor-gridlayer"><g class="x"/><g class="y"/></g><g class="gridlayer"><g class="x"><path class="xgrid crisp" transform="translate(71.63836103820356,0)" d="M0,46.88867016622919v398.2365485564304" style="stroke: rgb(0, 0, 0); stroke-opacity: 0.1; stroke-width: 0.5px;"/><path class="xgrid crisp" transform="translate(223.03836103820353,0)" d="M0,46.88867016622919v398.2365485564304" style="stroke: rgb(0, 0, 0); stroke-opacity: 0.1; stroke-width: 0.5px;"/><path class="xgrid crisp" transform="translate(374.4383610382036,0)" d="M0,46.88867016622919v398.2365485564304" style="stroke: rgb(0, 0, 0); stroke-opacity: 0.1; stroke-width: 0.5px;"/><path class="xgrid crisp" transform="translate(525.8383610382035,0)" d="M0,46.88867016622919v398.2365485564304" style="stroke: rgb(0, 0, 0); stroke-opacity: 0.1; stroke-width: 0.5px;"/><path class="xgrid crisp" transform="translate(677.2383610382036,0)" d="M0,46.88867016622919v398.2365485564304" style="stroke: rgb(0, 0, 0); stroke-opacity: 0.1; stroke-width: 0.5px;"/></g><g class="y"><path class="ygrid crisp" transform="translate(0,433.8586701662292)" d="M53.52836103820355,0h641.8784631087781" style="stroke: rgb(0, 0, 0); stroke-opacity: 0.1; stroke-width: 0.5px;"/><path class="ygrid crisp" transform="translate(0,352.4086701662292)" d="M53.52836103820355,0h641.8784631087781" style="stroke: rgb(0, 0, 0); stroke-opacity: 0.1; stroke-width: 0.5px;"/><path class="ygrid crisp" transform="translate(0,270.96867016622923)" d="M53.52836103820355,0h641.8784631087781" style="stroke: rgb(0, 0, 0); stroke-opacity: 0.1; stroke-width: 0.5px;"/><path class="ygrid crisp" transform="translate(0,189.52867016622918)" d="M53.52836103820355,0h641.8784631087781" style="stroke: rgb(0, 0, 0); stroke-opacity: 0.1; stroke-width: 0.5px;"/><path class="ygrid crisp" transform="translate(0,108.08867016622919)" d="M53.52836103820355,0h641.8784631087781" style="stroke: rgb(0, 0, 0); stroke-opacity: 0.1; stroke-width: 0.5px;"/></g></g><g class="zerolinelayer"/><g class="layer-between"><g class="shapelayer"/><g class="imagelayer"/></g><path class="xlines-below"/><path class="ylines-below"/><g class="overlines-below"/><g class="xaxislayer-below"/><g class="yaxislayer-below"/><g class="overaxes-below"/><g class="overplot"><g class="xy" transform="translate(53.52836103820355,46.88867016622919)" clip-path="url(#clip7a8bdfxyplot)"><g class="scatterlayer mlayer"><g class="trace scatter trace3f4b62" style="stroke-miterlimit: 2; opacity: 1;"><g class="fills"/><g class="errorbars"/><g class="lines"><path class="js-line" d="M18.17,386.97L21.44,386.56L21.5,386.15L22.59,383.2L22.65,383.2L23.44,382.46L23.5,382.46L23.86,382.13L23.92,381.06L27.01,380.91L27.07,379.48L27.92,379.07L27.98,375.92L28.76,363.65L28.83,363.65L30.22,363.09L30.28,362.16L31.73,357.92L31.79,357.92L32.94,357.72L33,357.72L34.21,357.72L34.28,349.1L36.52,348.84L36.58,348.22L37.42,348.22L37.49,344.77L37.79,344.77L37.85,345.64L39.06,345.64L39.12,341.82L39.73,342.18L39.79,339.11L42.27,339.53L42.33,337.62L43.36,337.62L43.42,322.53L43.72,322.38L43.78,319.46L45.18,319.46L45.24,316.23L47.84,316.34L47.9,312.92L48.69,312.17L48.75,312.17L49.66,311.9L49.72,311.9L50.63,311.9L50.69,313.28L51.29,312.3L51.35,300.08L51.66,300.08L51.72,298.04L53.53,298.17L53.59,294.39L53.96,294.39L54.02,289.14L56.26,289.14L56.32,275.9L56.56,275.9L56.62,272.79L57.95,272.79L58.02,263.08L60.01,263.23L60.07,263.88L60.44,263.88L60.5,261.81L63.1,261.92L63.16,260.6L63.89,260.6L63.95,235.19L66.55,235.05L66.61,224.32L66.68,225.02L66.74,206.8L67.89,202.48L67.95,202.48L69.4,202.48L69.46,201.13L69.7,202.32L69.76,191.27L73.28,191.27L73.34,189.46L74.61,189.68L74.67,177.31L74.91,177.31L74.97,178.39L80.54,178.03L80.6,174.05L81.57,173.49L81.63,173.49L82.12,173.49L82.18,168.31L82.72,168.31L82.78,179.16L83.57,158.39L83.63,158.39L84.6,158.39L84.66,151.25L85.15,151.25L85.21,146.95L86.66,146.95L86.72,148.69L88.17,148.77L88.24,144.71L91.02,144.44L91.08,142.7L91.93,142.34L91.99,130.51L95.32,130.31L95.38,135.08L95.99,135.08L96.05,140.06L96.35,140.06L96.41,136.82L96.9,136.82L96.96,138.08L101.07,138.08L101.13,137.09L105.37,137.09L105.43,138.93L105.74,139.64L105.98,136.56L106.04,136.56L106.89,136.56L106.95,132.25L110.04,132.6L110.1,124.9L111.55,124.9L111.61,125.7L113.55,126.02L113.61,131.69L114.03,131.69L114.09,129.52L115.12,131.73L115.18,131.73L116.76,131.65L116.82,130.69L117.3,130.69L117.36,132.66L118.64,132.66L118.7,131.44L119.54,130.72L119.61,131.51L120.51,128.18L120.57,128.18L120.94,128.18L121,126.99L121.6,126.99L121.66,131.27L122.82,131.27L122.88,137.27L123.84,137.27L123.91,133.7L124.81,133.7L124.87,135.65L125.66,133.85L125.72,133.85L126.09,133.85L126.15,131.51L126.39,131.51L126.45,134.59L128.45,134.59L128.51,131.51L129.42,131.18L129.48,131.18L130.57,131.18L130.63,117.05L131.35,117.74L131.41,120.49L131.72,120.49L131.78,118.28L134.81,117.96L134.87,119.81L135.65,125.72L135.71,125.72L136.26,125.72L136.32,115.01L138.2,115.01L138.26,117.88L138.74,120.71L138.8,116.12L138.92,116.12L138.98,116.12L139.77,114.6L139.83,114.6L140.01,114.71L140.07,105.26L142.8,105.26L142.86,101.62L143.71,101.62L143.77,109.4L143.83,109.2L143.89,101.52L146.43,101.52L146.49,100.06L148.74,99.67L148.8,98.26L149.7,98.26L149.76,106.66L150.25,106.66L150.31,118.74L150.98,118.74L151.04,119.7L151.52,119.7L151.58,116.35L152.49,115.96L152.55,120.19L153.4,121.59L153.46,121.59L154.43,116.16L154.49,116.16L154.91,116.16L154.97,111.49L157.03,111.92L157.09,116.07L157.33,116.07L157.4,119.44L158.3,115.82L158.36,115.82L159.58,119.43L159.64,119.43L159.7,116.59L160.36,119.22L160.42,119.22L160.91,119.22L160.97,121.84L161.09,131.69L161.7,126.38L161.76,126.38L162.3,126.38L162.36,128.61L162.66,128.61L162.72,125.11L164.3,124.72L164.36,118.97L164.97,118.97L165.03,118.18L166.06,118.18L166.12,116.26L166.54,107.72L166.96,111.71L167.02,111.71L167.51,111.71L167.57,109.55L168.9,109.55L168.96,110.62L169.81,120.59L169.87,120.59L170.36,120.59L170.42,122.7L170.72,122.7L170.78,121.66L172.41,121.66L172.47,119.94L173.87,119.93L173.93,125.47L174.29,125.47L174.35,120.03L175.14,116.82L175.2,116.82L175.75,116.25L175.93,116.74L175.99,116.74L176.9,111.03L176.96,113.09L177.02,113.09L177.99,113.09L178.05,111.01L179.92,111L179.98,112.34L180.41,112.34L180.47,114.78L181.38,110.58L181.44,110.58L184.65,110.7L184.71,109.75L185.07,109.91L185.13,112.18L185.56,112.18L185.62,109.81L186.04,109.81L186.1,107.48L186.52,107.48L186.59,108.96L187.25,97.6L187.43,101.86L187.49,101.86L188.64,113.26L188.71,110.12L190.16,110.18L190.22,108.39L191.91,108.39L191.98,100.5L192.7,100.5L192.76,99.71L193.31,99.71L193.37,101.23L196.94,100.89L197,104.73L197.3,104.73L197.37,103.31L199.24,103.69L199.3,104.39L199.55,104.64L199.61,110.42L199.97,110.42L200.03,118.76L200.27,118.76L200.33,117.28L201.24,106.42L201.3,106.42L202.63,106.42L202.69,105.57L203.18,105.57L203.24,103.55L204.39,103.34L204.45,103.34L205.54,103.67L205.6,104.22L206.33,107.28L206.39,56.34L206.57,56.34L206.63,59.81L206.81,59.81L206.87,58.11L207.12,51.33L207.6,57.76L207.66,57.76L207.96,57.76L208.02,58.84L208.81,58.84L208.87,60.42L209.3,60.42L209.36,65.92L210.45,65.92L210.51,66.8L211.05,66.8L211.11,63.76L211.66,63.76L211.72,62.81L212.87,62.81L212.93,62.81L213.23,62.81L213.29,76.78L213.9,76.78L213.96,82.76L214.99,84.28L215.05,84.28L215.35,84.28L215.41,77.9L216.14,77.9L216.2,75.04L216.56,75.04L216.62,72.7L216.99,72.7L217.05,67.89L217.77,67.67L217.83,55.44L219.95,55.43L220.01,53.88L220.38,54.16L220.44,65.03L221.23,65.03L221.29,61.6L221.89,61.6L221.95,63.33L223.1,63.33L223.16,61.96L224.68,61.75L224.74,58.45L226.31,58.45L226.37,60.18L227.16,60.18L227.22,55.44L228.43,55.44L228.49,60.32L229.46,60.32L229.52,59.17L230.61,59.17L230.67,57.05L231.34,57.05L231.4,63.42L233.16,63.42L233.22,55.59L234.07,55.59L234.13,60.68L234.85,34.77L234.91,43.44L234.97,50.85L236.12,50.85L236.18,45L236.31,41.24L237.03,41.86L237.09,41.86L237.88,41.94L237.94,38.96L238.55,38.96L238.61,40.97L239.58,40.97L239.64,34.8L240.06,39.04L240.48,38.66L240.54,35.56L241.45,28.42L241.51,28.42L242.42,27.51L242.48,27.51L244.06,27.71L244.12,25.3L244.3,25.3L244.36,20.16L245.75,20.86L245.81,18.75L247.75,19.29L247.81,29.56L248.72,31.04L248.78,31.04L249.14,31.04L249.21,32.2L249.75,32.2L249.81,34.77L250.6,44.63L250.66,44.63L251.32,44.63L251.39,38.19L251.99,38.19L252.05,37.19L252.6,26.22L252.84,29.08L252.9,27.7L253.08,27.7L253.14,28.64L254.05,29.47L254.11,29.47L254.47,29.25L254.53,27.96L255.08,27.73L255.14,26.74L255.38,26.74L255.44,28.43L255.75,28.43L255.81,31.54L256.05,31.54L256.11,30.26L257.62,29.62L257.68,27.65L258.11,26.98L258.17,25.17L259.5,25.17L259.56,21.94L260.35,21.94L260.41,22.89L260.89,22.89L260.95,25.9L261.26,25.9L261.32,24.43L261.98,24.43L262.04,25.9L262.83,26.42L262.89,25.29L263.68,27.92L263.74,27.92L264.77,24.1L264.83,24.41L265.13,24.41L265.19,27.67L267.01,27.57L267.07,26.66L267.98,26.22L268.04,27.13L268.65,27.13L268.71,28.26L269.49,30.68L269.67,30.52L269.74,30.52L270.22,30.61L270.28,27.2L270.52,27.2L270.58,37.3L271.55,37.46L271.61,35.78L272.4,39.34L272.46,39.34L272.64,38.55L272.7,29.09L273.55,27.28L273.61,27.86L273.79,27.86L273.85,23.3L274.34,23.3L274.4,24.69L274.76,25.17L274.82,25.66L275.19,25.66L275.25,33.9L275.97,34.41L276.03,33.55L277.73,34.24L277.79,35.86L278.7,37.77L278.76,35.24L279.61,34.81L279.67,34.81L279.97,37.41L280.39,35.34L280.45,26.78L281,26.78L281.06,18.37L281.48,19.4L281.73,18.91L281.79,23.03L282.57,24.84L282.63,24.26L282.7,24.26L283.66,24.26L283.72,25.37L284.39,25.13L284.45,23.77L284.69,23.77L284.75,24.64L285.6,25.16L285.66,25.16L286.09,24.78L286.15,27.6L287.06,27.6L287.12,26.41L287.84,26.41L287.9,24.75L288.39,24.48L288.45,24.12L291.48,24.12L291.54,27.33L291.96,27.33L292.02,22.81L294.14,23.49L294.2,26.55L295.05,30.54L295.11,30.54L295.66,30.54L295.72,27.44L296.26,27.83L296.32,44.44L296.62,44.44L296.68,40.96L297.65,34.36L297.71,34.36L298.62,33.98L298.68,34.31L298.74,46.69L298.99,34.31L299.59,36.92L299.65,36.92L300.08,42.05L300.5,41.44L300.56,41.44L301.35,24.72L301.41,24.72L302.2,29.36L302.26,29.36L303.59,29.36L303.65,26.5L303.89,26.5L303.95,22.13L304.8,22.45L304.86,20.57L307.46,20.57L307.53,20.93L308.31,20.07L308.37,19.81L309.1,20.45L309.16,20.62L310.43,20.78L310.49,20.45L312.55,20.08L312.61,21.09L313.46,21.38L313.52,25.99L314.31,28.59L314.37,28.59L314.61,28.59L314.67,31.5L315.46,29.05L315.52,29.05L316.43,29.05L316.49,24.8L317.09,24.8L317.15,23.15L318.79,23.51L318.85,22.25L319.76,19.13L319.82,19.13L320.42,19.42L320.49,20.92L321.27,33.17L321.33,27.87L321.39,27.87L322.06,27.87L322.12,29.15L323.03,29.46L323.09,28.73L323.39,28.73L323.45,27.73L324.24,29.26L324.3,29.26L325.57,29.61L325.63,33.92L326.3,33.92L326.36,37.63L327.45,37.76L327.51,37.76L328.96,38.15L329.02,32.6L329.39,34.35L329.45,28.88L329.63,29.18L329.69,29.18L330.17,28.64L330.24,27.99L330.42,27.99L330.48,28.77L331.93,28.6L331.99,31.35L333.63,31.12L333.69,29.83L334.47,30.66L334.54,30.66L335.08,30.38L335.14,28.47L335.99,39.21L336.05,39.02L336.59,39.02L336.65,35.46L337.5,29.88L337.56,29.88L338.35,38.49L338.41,38.49L338.59,38.49L338.65,39.25L338.83,31.16L339.5,33.39L339.56,33.39L340.11,33.39L340.17,32.46L341.2,30.46L341.26,32.45L342.29,32.55L342.35,33.53L347.01,33.01L347.07,31.67L347.25,31.67L347.31,32.67L347.8,30.06L348.1,31.44L348.16,31.44L349.25,31.44L349.31,29.84L350.22,29.84L350.28,31.24L352.22,31.18L352.28,36.95L353.85,36.93L353.91,34.36L354.52,34.58L354.58,36.18L356.09,28.57L356.16,28.57L356.76,24.63L357,25.18L357.06,25.18L358.09,25.08L358.15,24.43L359.55,24.83L359.61,26.43L360.15,26.89L360.21,30.12L360.82,30.12L360.88,25.77L361.18,25.77L361.24,21.65L362.27,21.65L362.33,22.79L363.06,23.43L363.12,22.27L363.54,22.47L363.6,30.78L363.91,30.78L363.97,29.5L365.24,28.96L365.3,20.37L365.78,20.37L365.84,22.63L367.66,23.36L367.72,21.85L367.96,21.85L368.03,21.03L368.45,20.39L368.51,21.19L368.75,21.19L368.81,21.66L368.93,23.48L369.6,23.01L369.66,23.01L370.02,23.01L370.08,24.12L372.08,23.87L372.14,23.1L372.69,23.33L372.75,21.17L373.78,19.79L373.84,19.79L374.14,19.79L374.2,22.29L375.96,22.29L376.02,26.69L376.99,26.69L377.05,25L377.96,27.2L378.02,23.66L378.87,21.49L378.93,21.49L379.65,21.49L379.71,23.41L380.14,22.42L380.2,25.15L380.26,25.15L381.65,25.15L381.71,27.45L381.95,27.45L382.01,25.69L384.68,25.16L384.74,26.42L385.53,29.52L385.59,29.52L385.83,29.52L385.89,32.09L386.31,32.36L386.37,31.42L386.44,31.42L388.37,30.79L388.43,29.24L388.98,29.42L389.04,27.42L389.95,30.08L390.01,30.08L390.86,30.7L390.92,30.7L392.79,30.73L392.85,28.34L393.16,28.34L393.22,30.73L393.64,32.02L393.7,29.43L393.82,29.43L393.88,29.43L394.25,29.43L394.31,28.47L394.49,29.25L394.55,25.59L394.73,25.59L394.79,24.56L395.34,24.56L395.4,22.58L396.79,22.33L396.85,23.35L398.49,22.9L398.55,21.81L398.85,21.81L398.91,20.43L399.27,20.43L399.33,16.53L399.64,14.93L400.06,16.23L400.12,16.23L401.21,16.23L401.27,17.89L402.85,18.54L402.91,22.95L403.09,22.95L403.15,15.74L403.76,15.74L403.82,16.71L404.12,16.71L404.18,15.68L404.97,14.71L405.03,14.71L405.57,14.71L405.63,17.28L405.81,17.28L405.88,19.27L406.97,19.27L407.03,22.67L407.51,22.67L407.57,23.48L408.36,25.64L408.42,25.64L409.69,25.01L409.75,22.01L411.08,21.86L411.14,21.86L415.32,21.86L415.38,24.55L416.47,24.58L416.53,22.85L416.72,22.85L416.78,23.98L417.02,22.81L417.08,44.14L417.26,44.14L417.32,42.14L418.17,47.23L418.23,38.01L418.71,35.98L418.96,37.56L419.02,37.56L419.8,36.6L419.87,36.6L420.41,36.6L420.47,41.96L421.56,42.56L421.62,48.38L422.05,48.82L422.11,41.97L422.83,41.97L422.89,47.88L423.07,47.88L423.14,41.85L424.41,42.05L424.47,33.47L425.01,33.12L425.07,40.51L425.32,40.51L425.38,43.38L425.86,45.17L425.92,42.82L426.04,42.82L426.1,42.82L426.89,40.17L426.95,40.17L427.5,40.17L427.56,39.06L427.86,39.06L427.92,50.22L429.25,50.3L429.31,55.07L429.49,55.07L429.55,52.63L429.86,52.63L429.92,51.86L430.58,51.77L430.64,58.89L431.19,58.89L431.25,51.28L432.16,25.86L432.22,25.86L433.61,25.91L433.67,27.47L434.16,27.57L434.22,30.13L435.37,30.75L435.43,30.93L436.1,28.98L436.16,38.33L438.46,38.33L438.52,37.46L439.43,37.46L439.49,33.91L439.61,34.27L439.67,31.11L439.73,31.11L439.79,31.11L440.64,28.17L440.7,28.17L441.61,35.13L441.73,34.61L441.79,28.22L442.33,28.22L442.39,31.45L442.7,29.25L442.88,30L442.94,18.93L443.3,18.68L443.42,18.93L443.48,14.69L443.73,14.69L443.79,15.63L444.39,15.63L444.45,14.76L446.21,14.76L446.27,12.36L446.88,12.36L446.94,14.99L447.54,15.5L447.6,25.52L448.45,18.39L448.51,18.39L449.84,18.39L449.9,19.9L450.21,19.9L450.27,18.22L450.63,17.48L450.69,19.35L451.17,19.35L451.24,18.4L452.2,18.4L452.26,17.26L453.17,17.26L453.23,20.57L453.72,20.57L453.78,25.47L454.45,25.47L454.51,27.36L454.69,27.36L454.75,32.23L455.05,32.23L455.11,35.03L455.17,36.9L455.9,36.53L455.96,36.53L456.26,36.53L456.32,35.71L457.17,35.71L457.23,28.28L457.72,28.28L457.78,29.28L459.23,29.28L459.29,31.4L459.41,31.23L459.47,33.5L459.71,33.5L459.77,31.23L460.38,31.23L460.44,42.21L461.11,42.35L461.17,44.85L461.35,44.85L461.41,47.11L461.83,46.67L461.89,43.12L462.08,43.12L462.14,38.07L463.41,55.47L463.47,55.47L463.65,55.47L463.71,52.23L464.92,47.04L464.98,47.04L465.47,47.04L465.53,48.06L465.95,48.06L466.01,45.32L466.5,47.06L466.98,46.65L467.04,46.65L467.71,46.56L467.77,45.12L468.13,45.12L468.19,46.34L468.8,46.34L468.86,51.6L469.59,51.6L469.65,49.51L469.89,49.51L469.95,51.8L470.43,51.8L470.49,45.18L471.04,45.18L471.1,46.25L471.52,46.25L471.58,47.29L474.43,46.6L474.49,40.29L475.28,42.05L475.34,42.05L475.64,42.05L475.7,39.23L476.49,39.36L476.55,40.73L476.85,40.73L476.91,39.75L477.76,39.3L477.82,39.3L480.85,39.35L480.91,42.41L481.76,39.18L481.82,39.18L484.73,38.99L484.79,36.64L485.39,36.82L485.45,29.23L486.24,32.75L486.3,32.75L487.27,32.75L487.33,35.4L488.24,35.4L488.3,41.37L488.9,41.37L488.96,32.48L489.27,32.48L489.33,36.39L489.51,36.39L489.57,32.49L489.81,32.49L489.87,29.17L490.96,28.83L491.02,34.18L491.27,34.18L491.33,30.31L492.3,28.38L492.36,28.38L492.54,29.28L493.08,28.46L493.14,24.67L493.69,24.05L493.75,20.79L495.14,21.4L495.2,20.18L495.69,20.18L495.75,18.43L496.17,18.17L496.23,17.07L496.41,17.22L496.47,20L497.56,20L497.62,22.74L498.53,19.91L498.59,19.91L500.29,20.52L500.35,19.59L501.8,19.59L501.86,22.44L504.59,23.09L504.65,24.49L505.62,24.49L505.68,26.28L507.01,45.98L507.07,45.98L509.37,45.98L509.43,44.9L510.22,44.04L510.28,43.57L510.77,43.57L510.83,42.04L511.67,41.55L511.74,41.55L512.64,41.55L512.7,37.85L514.22,37.34L514.28,29.76L515.01,29.76L515.07,31.32L517,31.05L517.06,33.08L518.22,32.88L518.28,24.24L521.91,24.13L521.97,18.98L522.94,14.05L523,18.14L523.3,18.14L523.36,15.63L525.06,15.63L525.12,14.44L525.72,14.44L525.79,13.61L527.91,13.99L527.97,12.33L528.33,12.33L528.39,11.27L530.33,11.27L530.39,13.37L530.63,13.37L530.69,16.27L531.36,15.72L531.42,13.49L532.45,17.22L532.51,17.22L534.51,17.22L534.57,16.14L534.75,18.11L534.81,15.66L535.23,15.66L535.29,15.66L536.69,11.84L536.75,14.03L537.17,15.71L537.41,13.32L537.47,13.32L539.96,13.32L540.02,15.65L540.74,17.26L540.8,13.97L541.77,13.97L541.83,12.05L542.68,12.05L542.74,16.3L543.71,16.3L543.77,14.87L544.68,19.32L544.74,19.32L545.77,19.46L545.83,17.94L547.41,17.67L547.47,19.31L548.13,19.31L548.19,18.33L548.74,18.33L548.8,19.98L551.16,20.02L551.22,17.18L552.13,16.52L552.19,16.42L553.04,16.49L553.1,21.81L557.46,22.04L557.52,25.28L557.76,24.49L558.31,24.55L558.37,24.55L559.58,24.55L559.64,20.5L561.82,20.76L561.88,22.06L562.67,24.96L562.73,24.96L563.58,21.17L563.64,21.17L564.48,21.67L564.54,22.56L564.73,22.56L564.79,21.38L565.21,21.38L565.27,19.96L567.33,20.37L567.39,23.24L567.51,22.83L568.18,23.18L568.24,23.18L569.09,24.01L569.15,24.01L569.51,23.87L569.57,26.18L569.87,26.18L569.93,28.25L572.17,28.25L572.24,27.07L573.27,27.07L573.33,25.29L573.69,25.14L573.75,22.08L575.81,22.83L575.87,29.36L578.41,30.02L578.47,32.93L579.14,32.61L579.2,33.47L580.41,28.55L580.47,28.55L581.26,28.55L581.32,22.33L582.23,22.33L582.29,38.68L582.77,38.68L582.83,39.44L583.32,40.1L583.38,44.78L583.98,44.78L584.04,41.58L584.17,28.75L584.77,29L584.83,35.29L585.13,35.48L585.2,29.01L585.92,29.18L585.98,33.63L586.77,33.47L586.83,32.77L588.41,33.48L588.47,35.1L589.37,14.26L589.5,15.22L589.56,15.22L590.77,15.22L590.83,13.92L591.19,13.71L591.25,14.43L591.43,14.43L591.49,14.43L591.68,14.69L591.74,16.92L594.28,16.99L594.34,14.5L595.13,14.89L595.19,14.89L595.73,15.27L595.79,14.37L595.91,12.41L596.58,12.95L596.64,13.04L596.94,13.04L597,14.14L597.49,23.87L597.97,23.49L598.03,20.47L598.76,20.47L598.82,29.52L599.25,27.36L599.67,28.64L599.73,28.64L600.58,28.64L600.64,29.78L601.43,29.78L601.49,27.49L601.61,27.25L601.67,22.91L602.58,22.91L602.64,23.8L603,23.8L603.06,28.14L603.36,28.14L603.42,30.77L604.15,30.95L604.21,32.64L605.24,32.31L605.3,34.31L605.67,34.31L605.73,36.97L606.63,37.65L606.69,43.08L606.94,43.08L607,46.64L607.3,46.64L607.36,36.39L607.91,36.39L607.97,35.21L609.42,35.21L609.48,36.39L610.57,33.23L610.63,33.23L611.12,33.23L611.18,31L611.48,31L611.54,28.93L612.27,28.93L612.33,31.2L613.05,31.2L613.11,27.61L613.3,25.02L613.54,28.78L613.78,28.11L613.84,28.53L614.57,30.72L614.63,27.93L616.2,27.71L616.26,28.93L616.69,28.93L616.75,30.05L617.47,30.05L617.53,27.17L618.5,27.43L618.56,30.69L618.75,31.17L618.81,39.46L619.78,40.9L619.84,40.9L620.44,51.19L620.81,50.4L620.87,50.4L621.53,50.4L621.59,49.59L621.71,48.66L621.77,49.65L622.38,49.24L622.44,49.24L622.62,49.24L622.68,50.87L623.47,50.87L623.53,52.88L623.71,52.88" style="vector-effect: none; fill: none; stroke: rgb(0, 154, 250); stroke-opacity: 1; stroke-width: 1px; opacity: 1;"/></g><g class="points"/><g class="text"/></g></g></g></g><path class="xlines-above crisp" d="M52.52836103820355,445.6252187226596H695.4068241469816" style="fill: none; stroke-width: 1px; stroke: rgb(0, 0, 0); stroke-opacity: 1;"/><path class="ylines-above crisp" d="M53.02836103820355,46.88867016622919V445.1252187226596" style="fill: none; stroke-width: 1px; stroke: rgb(0, 0, 0); stroke-opacity: 1;"/><g class="overlines-above"/><g class="xaxislayer-above"><path class="xtick ticks crisp" d="M0,445.1252187226596v-5" transform="translate(71.63836103820356,0)" style="stroke: rgb(0, 0, 0); stroke-opacity: 1; stroke-width: 1px;"/><path class="xtick ticks crisp" d="M0,445.1252187226596v-5" transform="translate(223.03836103820353,0)" style="stroke: rgb(0, 0, 0); stroke-opacity: 1; stroke-width: 1px;"/><path class="xtick ticks crisp" d="M0,445.1252187226596v-5" transform="translate(374.4383610382036,0)" style="stroke: rgb(0, 0, 0); stroke-opacity: 1; stroke-width: 1px;"/><path class="xtick ticks crisp" d="M0,445.1252187226596v-5" transform="translate(525.8383610382035,0)" style="stroke: rgb(0, 0, 0); stroke-opacity: 1; stroke-width: 1px;"/><path class="xtick ticks crisp" d="M0,445.1252187226596v-5" transform="translate(677.2383610382036,0)" style="stroke: rgb(0, 0, 0); stroke-opacity: 1; stroke-width: 1px;"/><g class="xtick"><text text-anchor="middle" x="0" y="459.3252187226596" transform="translate(71.63836103820356,0)" style="font-family: sans-serif; font-size: 11px; fill: rgb(0, 0, 0); fill-opacity: 1; white-space: pre; opacity: 1;">0</text></g><g class="xtick"><text text-anchor="middle" x="0" y="459.3252187226596" style="font-family: sans-serif; font-size: 11px; fill: rgb(0, 0, 0); fill-opacity: 1; white-space: pre; opacity: 1;" transform="translate(223.03836103820353,0)">2500</text></g><g class="xtick"><text text-anchor="middle" x="0" y="459.3252187226596" style="font-family: sans-serif; font-size: 11px; fill: rgb(0, 0, 0); fill-opacity: 1; white-space: pre; opacity: 1;" transform="translate(374.4383610382036,0)">5000</text></g><g class="xtick"><text text-anchor="middle" x="0" y="459.3252187226596" style="font-family: sans-serif; font-size: 11px; fill: rgb(0, 0, 0); fill-opacity: 1; white-space: pre; opacity: 1;" transform="translate(525.8383610382035,0)">7500</text></g><g class="xtick"><text text-anchor="middle" x="0" y="459.3252187226596" style="font-family: sans-serif; font-size: 11px; fill: rgb(0, 0, 0); fill-opacity: 1; white-space: pre; opacity: 1;" transform="translate(677.2383610382036,0)">10000</text></g></g><g class="yaxislayer-above"><path class="ytick ticks crisp" d="M53.52836103820355,0h5" transform="translate(0,433.8586701662292)" style="stroke: rgb(0, 0, 0); stroke-opacity: 1; stroke-width: 1px;"/><path class="ytick ticks crisp" d="M53.52836103820355,0h5" transform="translate(0,352.4086701662292)" style="stroke: rgb(0, 0, 0); stroke-opacity: 1; stroke-width: 1px;"/><path class="ytick ticks crisp" d="M53.52836103820355,0h5" transform="translate(0,270.96867016622923)" style="stroke: rgb(0, 0, 0); stroke-opacity: 1; stroke-width: 1px;"/><path class="ytick ticks crisp" d="M53.52836103820355,0h5" transform="translate(0,189.52867016622918)" style="stroke: rgb(0, 0, 0); stroke-opacity: 1; stroke-width: 1px;"/><path class="ytick ticks crisp" d="M53.52836103820355,0h5" transform="translate(0,108.08867016622919)" style="stroke: rgb(0, 0, 0); stroke-opacity: 1; stroke-width: 1px;"/><g class="ytick"><text text-anchor="end" x="50.328361038203546" y="3.8499999999999996" transform="translate(0,433.8586701662292)" style="font-family: sans-serif; font-size: 11px; fill: rgb(0, 0, 0); fill-opacity: 1; white-space: pre; opacity: 1;">0.0</text></g><g class="ytick"><text text-anchor="end" x="50.328361038203546" y="3.8499999999999996" style="font-family: sans-serif; font-size: 11px; fill: rgb(0, 0, 0); fill-opacity: 1; white-space: pre; opacity: 1;" transform="translate(0,352.4086701662292)">0.2</text></g><g class="ytick"><text text-anchor="end" x="50.328361038203546" y="3.8499999999999996" style="font-family: sans-serif; font-size: 11px; fill: rgb(0, 0, 0); fill-opacity: 1; white-space: pre; opacity: 1;" transform="translate(0,270.96867016622923)">0.4</text></g><g class="ytick"><text text-anchor="end" x="50.328361038203546" y="3.8499999999999996" style="font-family: sans-serif; font-size: 11px; fill: rgb(0, 0, 0); fill-opacity: 1; white-space: pre; opacity: 1;" transform="translate(0,189.52867016622918)">0.6</text></g><g class="ytick"><text text-anchor="end" x="50.328361038203546" y="3.8499999999999996" style="font-family: sans-serif; font-size: 11px; fill: rgb(0, 0, 0); fill-opacity: 1; white-space: pre; opacity: 1;" transform="translate(0,108.08867016622919)">0.8</text></g></g><g class="overaxes-above"/></g></g><g class="polarlayer"/><g class="smithlayer"/><g class="ternarylayer"/><g class="geolayer"/><g class="funnelarealayer"/><g class="pielayer"/><g class="iciclelayer"/><g class="treemaplayer"/><g class="sunburstlayer"/><g class="glimages"/><defs id="topdefs-7a8bdf"><g class="clips"/><clipPath id="legend7a8bdf"><rect width="57" height="29" x="1" y="1"/></clipPath></defs><g class="layer-above"><g class="imagelayer"/><g class="shapelayer"/></g><g class="infolayer"><g class="legend" pointer-events="all" transform="translate(641,20)"><rect class="bg" shape-rendering="crispEdges" style="stroke: rgb(0, 0, 0); stroke-opacity: 1; fill: rgb(255, 255, 255); fill-opacity: 1; stroke-width: 1px;" width="58" height="30" x="0.5" y="0.5"/><g class="scrollbox" transform="" clip-path="url(#legend7a8bdf)"><g class="groups"><g class="traces" transform="translate(1,15.5)" style="opacity: 1;"><text class="legendtext" text-anchor="start" x="40" y="4.29" style="font-family: sans-serif; font-size: 11px; fill: rgb(0, 0, 0); fill-opacity: 1; white-space: pre;">y1</text><g class="layers" style="opacity: 1;"><g class="legendfill"/><g class="legendlines"><path class="js-line" d="M5,0h30" style="fill: none; stroke: rgb(0, 154, 250); stroke-opacity: 1; stroke-width: 1px;"/></g><g class="legendsymbols"><g class="legendpoints"/></g></g><rect class="legendtoggle" x="0" y="-9.5" width="51.625" height="19" style="fill: rgb(0, 0, 0); fill-opacity: 0;"/></g></g></g><rect class="scrollbar" rx="20" ry="3" width="0" height="0" style="fill: rgb(128, 139, 164); fill-opacity: 1;" x="0" y="0"/></g><g class="g-gtitle"/><g class="g-xtitle"><text class="xtitle" x="374.4675925925926" y="486.828125" text-anchor="middle" style="opacity: 1; font-family: sans-serif; font-size: 15px; fill: rgb(0, 0, 0); fill-opacity: 1; white-space: pre;">Time</text></g><g class="g-ytitle"><text class="ytitle" transform="rotate(-90,15.28125,246.0069444444444)" x="15.28125" y="246.0069444444444" text-anchor="middle" style="opacity: 1; font-family: sans-serif; font-size: 15px; fill: rgb(0, 0, 0); fill-opacity: 1; white-space: pre;">Probability</text></g><g class="annotation" data-index="0" style="opacity: 1;"><g class="annotation-text-g" transform="rotate(0,374.4675925925926,33.000000000000014)"><g class="cursor-pointer" transform="translate(137,20)"><rect class="bg" x="0.5" y="0.5" width="473" height="25" style="stroke-width: 1px; stroke: rgb(0, 0, 0); stroke-opacity: 0; fill: rgb(0, 0, 0); fill-opacity: 0;"/><text class="annotation-text" text-anchor="middle" x="237.15625" y="20" style="font-family: sans-serif; font-size: 20px; fill: rgb(0, 0, 0); fill-opacity: 1; white-space: pre;">Evolution of the probability of the sequence over time</text></g></g></g></g></svg>